<?xml version="1.0" encoding="utf-8" standalone="no"?>
<!DOCTYPE svg PUBLIC "-//W3C//DTD SVG 1.1//EN"
  "http://www.w3.org/Graphics/SVG/1.1/DTD/svg11.dtd">
<!-- Created with matplotlib (http://matplotlib.org/) -->
<svg height="288pt" version="1.1" viewBox="0 0 432 288" width="432pt" xmlns="http://www.w3.org/2000/svg" xmlns:xlink="http://www.w3.org/1999/xlink">
 <defs>
  <style type="text/css">
*{stroke-linecap:butt;stroke-linejoin:round;}
  </style>
 </defs>
 <g id="figure_1">
  <g id="patch_1">
   <path d="M 0 288 
L 432 288 
L 432 0 
L 0 0 
z
" style="fill:#ffffff;"/>
  </g>
  <g id="axes_1">
   <g id="patch_2">
    <path d="M 23.064646 273.485354 
L 429.165354 273.485354 
L 429.165354 2.834646 
L 23.064646 2.834646 
z
" style="fill:#ffffff;"/>
   </g>
   <g id="matplotlib.axis_1">
    <g id="xtick_1">
     <g id="line2d_1">
      <path clip-path="url(#p3c0c2691a6)" d="M 34.558062 273.485354 
L 34.558062 2.834646 
" style="fill:none;opacity:0.1;stroke:#000000;stroke-linecap:square;stroke-width:0.5;"/>
     </g>
     <g id="line2d_2">
      <defs>
       <path d="M 0 0 
L 0 3.5 
" id="md4a99637cc" style="stroke:#000000;stroke-width:0.8;"/>
      </defs>
      <g>
       <use style="stroke:#000000;stroke-width:0.8;" x="34.558062" xlink:href="#md4a99637cc" y="273.485354"/>
      </g>
     </g>
     <g id="text_1">
      <!-- 0 -->
      <defs>
       <path d="M 31.78125 66.40625 
Q 24.171875 66.40625 20.328125 58.90625 
Q 16.5 51.421875 16.5 36.375 
Q 16.5 21.390625 20.328125 13.890625 
Q 24.171875 6.390625 31.78125 6.390625 
Q 39.453125 6.390625 43.28125 13.890625 
Q 47.125 21.390625 47.125 36.375 
Q 47.125 51.421875 43.28125 58.90625 
Q 39.453125 66.40625 31.78125 66.40625 
z
M 31.78125 74.21875 
Q 44.046875 74.21875 50.515625 64.515625 
Q 56.984375 54.828125 56.984375 36.375 
Q 56.984375 17.96875 50.515625 8.265625 
Q 44.046875 -1.421875 31.78125 -1.421875 
Q 19.53125 -1.421875 13.0625 8.265625 
Q 6.59375 17.96875 6.59375 36.375 
Q 6.59375 54.828125 13.0625 64.515625 
Q 19.53125 74.21875 31.78125 74.21875 
z
" id="DejaVuSans-30"/>
      </defs>
      <g transform="translate(32.013062 286.564104)scale(0.08 -0.08)">
       <use xlink:href="#DejaVuSans-30"/>
      </g>
     </g>
    </g>
    <g id="xtick_2">
     <g id="line2d_3">
      <path clip-path="url(#p3c0c2691a6)" d="M 95.532529 273.485354 
L 95.532529 2.834646 
" style="fill:none;opacity:0.1;stroke:#000000;stroke-linecap:square;stroke-width:0.5;"/>
     </g>
     <g id="line2d_4">
      <g>
       <use style="stroke:#000000;stroke-width:0.8;" x="95.532529" xlink:href="#md4a99637cc" y="273.485354"/>
      </g>
     </g>
     <g id="text_2">
      <!-- 1 -->
      <defs>
       <path d="M 12.40625 8.296875 
L 28.515625 8.296875 
L 28.515625 63.921875 
L 10.984375 60.40625 
L 10.984375 69.390625 
L 28.421875 72.90625 
L 38.28125 72.90625 
L 38.28125 8.296875 
L 54.390625 8.296875 
L 54.390625 0 
L 12.40625 0 
z
" id="DejaVuSans-31"/>
      </defs>
      <g transform="translate(92.987529 286.564104)scale(0.08 -0.08)">
       <use xlink:href="#DejaVuSans-31"/>
      </g>
     </g>
    </g>
    <g id="xtick_3">
     <g id="line2d_5">
      <path clip-path="url(#p3c0c2691a6)" d="M 156.506996 273.485354 
L 156.506996 2.834646 
" style="fill:none;opacity:0.1;stroke:#000000;stroke-linecap:square;stroke-width:0.5;"/>
     </g>
     <g id="line2d_6">
      <g>
       <use style="stroke:#000000;stroke-width:0.8;" x="156.506996" xlink:href="#md4a99637cc" y="273.485354"/>
      </g>
     </g>
     <g id="text_3">
      <!-- 2 -->
      <defs>
       <path d="M 19.1875 8.296875 
L 53.609375 8.296875 
L 53.609375 0 
L 7.328125 0 
L 7.328125 8.296875 
Q 12.9375 14.109375 22.625 23.890625 
Q 32.328125 33.6875 34.8125 36.53125 
Q 39.546875 41.84375 41.421875 45.53125 
Q 43.3125 49.21875 43.3125 52.78125 
Q 43.3125 58.59375 39.234375 62.25 
Q 35.15625 65.921875 28.609375 65.921875 
Q 23.96875 65.921875 18.8125 64.3125 
Q 13.671875 62.703125 7.8125 59.421875 
L 7.8125 69.390625 
Q 13.765625 71.78125 18.9375 73 
Q 24.125 74.21875 28.421875 74.21875 
Q 39.75 74.21875 46.484375 68.546875 
Q 53.21875 62.890625 53.21875 53.421875 
Q 53.21875 48.921875 51.53125 44.890625 
Q 49.859375 40.875 45.40625 35.40625 
Q 44.1875 33.984375 37.640625 27.21875 
Q 31.109375 20.453125 19.1875 8.296875 
z
" id="DejaVuSans-32"/>
      </defs>
      <g transform="translate(153.961996 286.564104)scale(0.08 -0.08)">
       <use xlink:href="#DejaVuSans-32"/>
      </g>
     </g>
    </g>
    <g id="xtick_4">
     <g id="line2d_7">
      <path clip-path="url(#p3c0c2691a6)" d="M 217.481463 273.485354 
L 217.481463 2.834646 
" style="fill:none;opacity:0.1;stroke:#000000;stroke-linecap:square;stroke-width:0.5;"/>
     </g>
     <g id="line2d_8">
      <g>
       <use style="stroke:#000000;stroke-width:0.8;" x="217.481463" xlink:href="#md4a99637cc" y="273.485354"/>
      </g>
     </g>
     <g id="text_4">
      <!-- 3 -->
      <defs>
       <path d="M 40.578125 39.3125 
Q 47.65625 37.796875 51.625 33 
Q 55.609375 28.21875 55.609375 21.1875 
Q 55.609375 10.40625 48.1875 4.484375 
Q 40.765625 -1.421875 27.09375 -1.421875 
Q 22.515625 -1.421875 17.65625 -0.515625 
Q 12.796875 0.390625 7.625 2.203125 
L 7.625 11.71875 
Q 11.71875 9.328125 16.59375 8.109375 
Q 21.484375 6.890625 26.8125 6.890625 
Q 36.078125 6.890625 40.9375 10.546875 
Q 45.796875 14.203125 45.796875 21.1875 
Q 45.796875 27.640625 41.28125 31.265625 
Q 36.765625 34.90625 28.71875 34.90625 
L 20.21875 34.90625 
L 20.21875 43.015625 
L 29.109375 43.015625 
Q 36.375 43.015625 40.234375 45.921875 
Q 44.09375 48.828125 44.09375 54.296875 
Q 44.09375 59.90625 40.109375 62.90625 
Q 36.140625 65.921875 28.71875 65.921875 
Q 24.65625 65.921875 20.015625 65.03125 
Q 15.375 64.15625 9.8125 62.3125 
L 9.8125 71.09375 
Q 15.4375 72.65625 20.34375 73.4375 
Q 25.25 74.21875 29.59375 74.21875 
Q 40.828125 74.21875 47.359375 69.109375 
Q 53.90625 64.015625 53.90625 55.328125 
Q 53.90625 49.265625 50.4375 45.09375 
Q 46.96875 40.921875 40.578125 39.3125 
z
" id="DejaVuSans-33"/>
      </defs>
      <g transform="translate(214.936463 286.564104)scale(0.08 -0.08)">
       <use xlink:href="#DejaVuSans-33"/>
      </g>
     </g>
    </g>
    <g id="xtick_5">
     <g id="line2d_9">
      <path clip-path="url(#p3c0c2691a6)" d="M 278.455931 273.485354 
L 278.455931 2.834646 
" style="fill:none;opacity:0.1;stroke:#000000;stroke-linecap:square;stroke-width:0.5;"/>
     </g>
     <g id="line2d_10">
      <g>
       <use style="stroke:#000000;stroke-width:0.8;" x="278.455931" xlink:href="#md4a99637cc" y="273.485354"/>
      </g>
     </g>
     <g id="text_5">
      <!-- 4 -->
      <defs>
       <path d="M 37.796875 64.3125 
L 12.890625 25.390625 
L 37.796875 25.390625 
z
M 35.203125 72.90625 
L 47.609375 72.90625 
L 47.609375 25.390625 
L 58.015625 25.390625 
L 58.015625 17.1875 
L 47.609375 17.1875 
L 47.609375 0 
L 37.796875 0 
L 37.796875 17.1875 
L 4.890625 17.1875 
L 4.890625 26.703125 
z
" id="DejaVuSans-34"/>
      </defs>
      <g transform="translate(275.910931 286.564104)scale(0.08 -0.08)">
       <use xlink:href="#DejaVuSans-34"/>
      </g>
     </g>
    </g>
    <g id="xtick_6">
     <g id="line2d_11">
      <path clip-path="url(#p3c0c2691a6)" d="M 339.430398 273.485354 
L 339.430398 2.834646 
" style="fill:none;opacity:0.1;stroke:#000000;stroke-linecap:square;stroke-width:0.5;"/>
     </g>
     <g id="line2d_12">
      <g>
       <use style="stroke:#000000;stroke-width:0.8;" x="339.430398" xlink:href="#md4a99637cc" y="273.485354"/>
      </g>
     </g>
     <g id="text_6">
      <!-- 5 -->
      <defs>
       <path d="M 10.796875 72.90625 
L 49.515625 72.90625 
L 49.515625 64.59375 
L 19.828125 64.59375 
L 19.828125 46.734375 
Q 21.96875 47.46875 24.109375 47.828125 
Q 26.265625 48.1875 28.421875 48.1875 
Q 40.625 48.1875 47.75 41.5 
Q 54.890625 34.8125 54.890625 23.390625 
Q 54.890625 11.625 47.5625 5.09375 
Q 40.234375 -1.421875 26.90625 -1.421875 
Q 22.3125 -1.421875 17.546875 -0.640625 
Q 12.796875 0.140625 7.71875 1.703125 
L 7.71875 11.625 
Q 12.109375 9.234375 16.796875 8.0625 
Q 21.484375 6.890625 26.703125 6.890625 
Q 35.15625 6.890625 40.078125 11.328125 
Q 45.015625 15.765625 45.015625 23.390625 
Q 45.015625 31 40.078125 35.4375 
Q 35.15625 39.890625 26.703125 39.890625 
Q 22.75 39.890625 18.8125 39.015625 
Q 14.890625 38.140625 10.796875 36.28125 
z
" id="DejaVuSans-35"/>
      </defs>
      <g transform="translate(336.885398 286.564104)scale(0.08 -0.08)">
       <use xlink:href="#DejaVuSans-35"/>
      </g>
     </g>
    </g>
    <g id="xtick_7">
     <g id="line2d_13">
      <path clip-path="url(#p3c0c2691a6)" d="M 400.404865 273.485354 
L 400.404865 2.834646 
" style="fill:none;opacity:0.1;stroke:#000000;stroke-linecap:square;stroke-width:0.5;"/>
     </g>
     <g id="line2d_14">
      <g>
       <use style="stroke:#000000;stroke-width:0.8;" x="400.404865" xlink:href="#md4a99637cc" y="273.485354"/>
      </g>
     </g>
     <g id="text_7">
      <!-- 6 -->
      <defs>
       <path d="M 33.015625 40.375 
Q 26.375 40.375 22.484375 35.828125 
Q 18.609375 31.296875 18.609375 23.390625 
Q 18.609375 15.53125 22.484375 10.953125 
Q 26.375 6.390625 33.015625 6.390625 
Q 39.65625 6.390625 43.53125 10.953125 
Q 47.40625 15.53125 47.40625 23.390625 
Q 47.40625 31.296875 43.53125 35.828125 
Q 39.65625 40.375 33.015625 40.375 
z
M 52.59375 71.296875 
L 52.59375 62.3125 
Q 48.875 64.0625 45.09375 64.984375 
Q 41.3125 65.921875 37.59375 65.921875 
Q 27.828125 65.921875 22.671875 59.328125 
Q 17.53125 52.734375 16.796875 39.40625 
Q 19.671875 43.65625 24.015625 45.921875 
Q 28.375 48.1875 33.59375 48.1875 
Q 44.578125 48.1875 50.953125 41.515625 
Q 57.328125 34.859375 57.328125 23.390625 
Q 57.328125 12.15625 50.6875 5.359375 
Q 44.046875 -1.421875 33.015625 -1.421875 
Q 20.359375 -1.421875 13.671875 8.265625 
Q 6.984375 17.96875 6.984375 36.375 
Q 6.984375 53.65625 15.1875 63.9375 
Q 23.390625 74.21875 37.203125 74.21875 
Q 40.921875 74.21875 44.703125 73.484375 
Q 48.484375 72.75 52.59375 71.296875 
z
" id="DejaVuSans-36"/>
      </defs>
      <g transform="translate(397.859865 286.564104)scale(0.08 -0.08)">
       <use xlink:href="#DejaVuSans-36"/>
      </g>
     </g>
    </g>
   </g>
   <g id="matplotlib.axis_2">
    <g id="ytick_1">
     <g id="line2d_15">
      <path clip-path="url(#p3c0c2691a6)" d="M 23.064646 238.104871 
L 429.165354 238.104871 
" style="fill:none;opacity:0.1;stroke:#000000;stroke-linecap:square;stroke-width:0.5;"/>
     </g>
     <g id="line2d_16">
      <defs>
       <path d="M 0 0 
L -3.5 0 
" id="m3997884dcf" style="stroke:#000000;stroke-width:0.8;"/>
      </defs>
      <g>
       <use style="stroke:#000000;stroke-width:0.8;" x="23.064646" xlink:href="#m3997884dcf" y="238.104871"/>
      </g>
     </g>
     <g id="text_8">
      <!-- -1.5 -->
      <defs>
       <path d="M 4.890625 31.390625 
L 31.203125 31.390625 
L 31.203125 23.390625 
L 4.890625 23.390625 
z
" id="DejaVuSans-2d"/>
       <path d="M 10.6875 12.40625 
L 21 12.40625 
L 21 0 
L 10.6875 0 
z
" id="DejaVuSans-2e"/>
      </defs>
      <g transform="translate(0.455896 241.144246)scale(0.08 -0.08)">
       <use xlink:href="#DejaVuSans-2d"/>
       <use x="36.083984" xlink:href="#DejaVuSans-31"/>
       <use x="99.707031" xlink:href="#DejaVuSans-2e"/>
       <use x="131.494141" xlink:href="#DejaVuSans-35"/>
      </g>
     </g>
    </g>
    <g id="ytick_2">
     <g id="line2d_17">
      <path clip-path="url(#p3c0c2691a6)" d="M 23.064646 198.397738 
L 429.165354 198.397738 
" style="fill:none;opacity:0.1;stroke:#000000;stroke-linecap:square;stroke-width:0.5;"/>
     </g>
     <g id="line2d_18">
      <g>
       <use style="stroke:#000000;stroke-width:0.8;" x="23.064646" xlink:href="#m3997884dcf" y="198.397738"/>
      </g>
     </g>
     <g id="text_9">
      <!-- -1.0 -->
      <g transform="translate(0.455896 201.437113)scale(0.08 -0.08)">
       <use xlink:href="#DejaVuSans-2d"/>
       <use x="36.083984" xlink:href="#DejaVuSans-31"/>
       <use x="99.707031" xlink:href="#DejaVuSans-2e"/>
       <use x="131.494141" xlink:href="#DejaVuSans-30"/>
      </g>
     </g>
    </g>
    <g id="ytick_3">
     <g id="line2d_19">
      <path clip-path="url(#p3c0c2691a6)" d="M 23.064646 158.690605 
L 429.165354 158.690605 
" style="fill:none;opacity:0.1;stroke:#000000;stroke-linecap:square;stroke-width:0.5;"/>
     </g>
     <g id="line2d_20">
      <g>
       <use style="stroke:#000000;stroke-width:0.8;" x="23.064646" xlink:href="#m3997884dcf" y="158.690605"/>
      </g>
     </g>
     <g id="text_10">
      <!-- -0.5 -->
      <g transform="translate(0.455896 161.72998)scale(0.08 -0.08)">
       <use xlink:href="#DejaVuSans-2d"/>
       <use x="36.083984" xlink:href="#DejaVuSans-30"/>
       <use x="99.707031" xlink:href="#DejaVuSans-2e"/>
       <use x="131.494141" xlink:href="#DejaVuSans-35"/>
      </g>
     </g>
    </g>
    <g id="ytick_4">
     <g id="line2d_21">
      <path clip-path="url(#p3c0c2691a6)" d="M 23.064646 118.983472 
L 429.165354 118.983472 
" style="fill:none;opacity:0.1;stroke:#000000;stroke-linecap:square;stroke-width:0.5;"/>
     </g>
     <g id="line2d_22">
      <g>
       <use style="stroke:#000000;stroke-width:0.8;" x="23.064646" xlink:href="#m3997884dcf" y="118.983472"/>
      </g>
     </g>
     <g id="text_11">
      <!-- 0.0 -->
      <g transform="translate(3.342146 122.022847)scale(0.08 -0.08)">
       <use xlink:href="#DejaVuSans-30"/>
       <use x="63.623047" xlink:href="#DejaVuSans-2e"/>
       <use x="95.410156" xlink:href="#DejaVuSans-30"/>
      </g>
     </g>
    </g>
    <g id="ytick_5">
     <g id="line2d_23">
      <path clip-path="url(#p3c0c2691a6)" d="M 23.064646 79.276339 
L 429.165354 79.276339 
" style="fill:none;opacity:0.1;stroke:#000000;stroke-linecap:square;stroke-width:0.5;"/>
     </g>
     <g id="line2d_24">
      <g>
       <use style="stroke:#000000;stroke-width:0.8;" x="23.064646" xlink:href="#m3997884dcf" y="79.276339"/>
      </g>
     </g>
     <g id="text_12">
      <!-- 0.5 -->
      <g transform="translate(3.342146 82.315714)scale(0.08 -0.08)">
       <use xlink:href="#DejaVuSans-30"/>
       <use x="63.623047" xlink:href="#DejaVuSans-2e"/>
       <use x="95.410156" xlink:href="#DejaVuSans-35"/>
      </g>
     </g>
    </g>
    <g id="ytick_6">
     <g id="line2d_25">
      <path clip-path="url(#p3c0c2691a6)" d="M 23.064646 39.569206 
L 429.165354 39.569206 
" style="fill:none;opacity:0.1;stroke:#000000;stroke-linecap:square;stroke-width:0.5;"/>
     </g>
     <g id="line2d_26">
      <g>
       <use style="stroke:#000000;stroke-width:0.8;" x="23.064646" xlink:href="#m3997884dcf" y="39.569206"/>
      </g>
     </g>
     <g id="text_13">
      <!-- 1.0 -->
      <g transform="translate(3.342146 42.608581)scale(0.08 -0.08)">
       <use xlink:href="#DejaVuSans-31"/>
       <use x="63.623047" xlink:href="#DejaVuSans-2e"/>
       <use x="95.410156" xlink:href="#DejaVuSans-30"/>
      </g>
     </g>
    </g>
   </g>
   <g id="line2d_27">
    <path clip-path="url(#p3c0c2691a6)" d="M 34.558062 118.983472 
L 36.473631 105.797033 
L 38.389201 92.827954 
L 42.220339 68.382657 
L 44.135909 57.298687 
L 46.051478 47.207993 
L 47.967048 38.259929 
L 49.882617 30.578923 
L 51.798186 24.261882 
L 53.713756 19.376259 
L 55.629325 15.958804 
L 57.544895 14.01504 
L 59.460464 13.519466 
L 61.376033 14.416486 
L 63.291603 16.622023 
L 65.207172 20.025794 
L 67.122741 24.49417 
L 69.038311 29.87356 
L 70.95388 35.994223 
L 74.785019 49.724817 
L 80.531727 71.184346 
L 82.447296 77.827385 
L 84.362866 83.935934 
L 86.278435 89.366497 
L 88.194005 93.996165 
L 90.109574 97.725105 
L 92.025143 100.478456 
L 93.940713 102.207565 
L 95.856282 102.890563 
L 97.771852 102.532259 
L 99.687421 101.163379 
L 101.60299 98.839156 
L 103.51856 95.63734 
L 105.434129 91.655663 
L 107.349698 87.008847 
L 109.265268 81.825234 
L 113.096407 70.406911 
L 118.843115 52.826897 
L 120.758684 47.403764 
L 122.674253 42.405091 
L 124.589823 37.933341 
L 126.505392 34.073283 
L 128.420962 30.890109 
L 130.336531 28.428116 
L 132.2521 26.709992 
L 134.16767 25.736705 
L 136.083239 25.488017 
L 137.998808 25.923575 
L 139.914378 26.984563 
L 141.829947 28.59586 
L 143.745517 30.66864 
L 145.661086 33.103336 
L 149.492225 38.626212 
L 153.323364 44.280685 
L 155.238933 46.891093 
L 157.154502 49.230424 
L 159.070072 51.218816 
L 160.985641 52.791588 
L 162.90121 53.901362 
L 164.81678 54.519683 
L 166.732349 54.638082 
L 168.647919 54.268565 
L 170.563488 53.443493 
L 172.479057 52.214873 
L 174.394627 50.653057 
L 178.225765 46.891418 
L 182.056904 43.006166 
L 183.972474 41.320329 
L 185.888043 39.973947 
L 187.803612 39.090908 
L 189.719182 38.788779 
L 191.634751 39.175202 
L 193.550321 40.34448 
L 195.46589 42.374476 
L 197.381459 45.323896 
L 199.297029 49.230042 
L 201.212598 54.107092 
L 203.128167 59.944973 
L 205.043737 66.70885 
L 206.959306 74.339266 
L 208.874876 82.752922 
L 210.790445 91.844108 
L 214.621584 111.536909 
L 222.283861 152.49838 
L 224.199431 162.044675 
L 226.115 170.960784 
L 228.030569 179.082994 
L 229.946139 186.261436 
L 231.861708 192.363905 
L 233.777278 197.279298 
L 235.692847 200.920597 
L 237.608416 203.227304 
L 239.523986 204.167272 
L 241.439555 203.737869 
L 243.355124 201.966461 
L 245.270694 198.910169 
L 247.186263 194.654926 
L 249.101833 189.313835 
L 251.017402 183.024861 
L 252.932971 175.947929 
L 256.76411 160.15848 
L 262.510818 135.407607 
L 264.426388 127.705568 
L 266.341957 120.613791 
L 268.257526 114.317258 
L 270.173096 108.983772 
L 272.088665 104.760101 
L 274.004235 101.768623 
L 275.919804 100.104519 
L 277.835373 99.833602 
L 279.750943 100.990826 
L 281.666512 103.579506 
L 283.582081 107.571285 
L 285.497651 112.906824 
L 287.41322 119.497211 
L 289.32879 127.226059 
L 291.244359 135.952223 
L 293.159928 145.513087 
L 296.991067 166.4041 
L 304.653345 209.61417 
L 306.568914 219.528755 
L 308.484483 228.71164 
L 310.400053 237.000971 
L 312.315622 244.2558 
L 314.231192 250.358966 
L 316.146761 255.219387 
L 318.06233 258.773704 
L 319.9779 260.987234 
L 321.893469 261.854236 
L 323.809038 261.39747 
L 325.724608 259.667089 
L 327.640177 256.738871 
L 329.555747 252.711871 
L 331.471316 247.705537 
L 333.386885 241.856381 
L 335.302455 235.314285 
L 339.133593 220.793744 
L 346.795871 190.569581 
L 348.71144 183.647204 
L 350.62701 177.230011 
L 352.542579 171.412609 
L 354.458148 166.268302 
L 356.373718 161.84781 
L 358.289287 158.178613 
L 360.204857 155.264929 
L 362.120426 153.088308 
L 364.035995 151.608846 
L 365.951565 150.766948 
L 367.867134 150.485608 
L 369.782704 150.67313 
L 371.698273 151.226209 
L 373.613842 152.033299 
L 379.36055 154.814407 
L 381.27612 155.482284 
L 383.191689 155.847654 
L 385.107259 155.823398 
L 387.022828 155.337299 
L 388.938397 154.334195 
L 390.853967 152.777615 
L 392.769536 150.650863 
L 394.685105 147.957513 
L 396.600675 144.721319 
L 398.516244 140.985513 
L 400.431814 136.81155 
L 404.262952 127.474727 
L 411.92523 107.753512 
L 413.840799 103.27543 
L 415.756369 99.205274 
L 417.671938 95.644205 
L 417.671938 95.644205 
" style="fill:none;stroke:#000000;stroke-linecap:round;stroke-width:2;"/>
   </g>
   <g id="line2d_28">
    <path clip-path="url(#p3c0c2691a6)" d="M 34.558062 61.629556 
L 199.297029 43.730794 
L 237.608416 217.718995 
L 279.750943 85.682142 
L 314.231192 254.218278 
L 417.671938 97.10083 
" style="fill:none;stroke:#e36f47;stroke-linecap:round;stroke-width:2;"/>
   </g>
   <g id="PathCollection_1">
    <defs>
     <path d="M 0 2 
C 0.530406 2 1.03916 1.789267 1.414214 1.414214 
C 1.789267 1.03916 2 0.530406 2 0 
C 2 -0.530406 1.789267 -1.03916 1.414214 -1.414214 
C 1.03916 -1.789267 0.530406 -2 0 -2 
C -0.530406 -2 -1.03916 -1.789267 -1.414214 -1.414214 
C -1.789267 -1.03916 -2 -0.530406 -2 0 
C -2 0.530406 -1.789267 1.03916 -1.414214 1.414214 
C -1.03916 1.789267 -0.530406 2 0 2 
z
" id="mebea1c438c" style="stroke:#000000;"/>
    </defs>
    <g clip-path="url(#p3c0c2691a6)">
     <use style="fill:#e36f47;stroke:#000000;" x="34.558062" xlink:href="#mebea1c438c" y="61.629556"/>
     <use style="fill:#e36f47;stroke:#000000;" x="199.297029" xlink:href="#mebea1c438c" y="43.730794"/>
     <use style="fill:#e36f47;stroke:#000000;" x="237.608416" xlink:href="#mebea1c438c" y="217.718995"/>
     <use style="fill:#e36f47;stroke:#000000;" x="279.750943" xlink:href="#mebea1c438c" y="85.682142"/>
     <use style="fill:#e36f47;stroke:#000000;" x="314.231192" xlink:href="#mebea1c438c" y="254.218278"/>
     <use style="fill:#e36f47;stroke:#000000;" x="417.671938" xlink:href="#mebea1c438c" y="97.10083"/>
    </g>
   </g>
   <g id="patch_3">
    <path d="M 23.064646 273.485354 
L 23.064646 2.834646 
" style="fill:none;stroke:#000000;stroke-linecap:square;stroke-linejoin:miter;stroke-width:0.8;"/>
   </g>
   <g id="patch_4">
    <path d="M 23.064646 273.485354 
L 429.165354 273.485354 
" style="fill:none;stroke:#000000;stroke-linecap:square;stroke-linejoin:miter;stroke-width:0.8;"/>
   </g>
   <g id="line2d_29">
    <path clip-path="url(#p3c0c2691a6)" d="M 34.558062 115.389785 
L 49.882617 25.798904 
L 61.376033 10.494571 
L 95.856282 112.938249 
L 132.2521 20.781236 
L 162.90121 54.072837 
L 199.297029 39.149299 
L 231.861708 197.095932 
L 245.270694 204.029553 
L 272.088665 99.660808 
L 285.497651 107.205573 
L 312.315622 248.447403 
L 325.724608 265.825429 
L 358.289287 152.782911 
L 392.769536 154.000393 
L 417.671938 94.796801 
" style="fill:none;stroke:#3ea44e;stroke-linecap:round;stroke-width:2;"/>
   </g>
   <g id="PathCollection_2">
    <defs>
     <path d="M 0 2 
C 0.530406 2 1.03916 1.789267 1.414214 1.414214 
C 1.789267 1.03916 2 0.530406 2 0 
C 2 -0.530406 1.789267 -1.03916 1.414214 -1.414214 
C 1.03916 -1.789267 0.530406 -2 0 -2 
C -0.530406 -2 -1.03916 -1.789267 -1.414214 -1.414214 
C -1.789267 -1.03916 -2 -0.530406 -2 0 
C -2 0.530406 -1.789267 1.03916 -1.414214 1.414214 
C -1.03916 1.789267 -0.530406 2 0 2 
z
" id="m3c66d3c19c" style="stroke:#000000;"/>
    </defs>
    <g clip-path="url(#p3c0c2691a6)">
     <use style="fill:#3ea44e;stroke:#000000;" x="34.558062" xlink:href="#m3c66d3c19c" y="115.389785"/>
     <use style="fill:#3ea44e;stroke:#000000;" x="49.882617" xlink:href="#m3c66d3c19c" y="25.798904"/>
     <use style="fill:#3ea44e;stroke:#000000;" x="61.376033" xlink:href="#m3c66d3c19c" y="10.494571"/>
     <use style="fill:#3ea44e;stroke:#000000;" x="95.856282" xlink:href="#m3c66d3c19c" y="112.938249"/>
     <use style="fill:#3ea44e;stroke:#000000;" x="132.2521" xlink:href="#m3c66d3c19c" y="20.781236"/>
     <use style="fill:#3ea44e;stroke:#000000;" x="162.90121" xlink:href="#m3c66d3c19c" y="54.072837"/>
     <use style="fill:#3ea44e;stroke:#000000;" x="199.297029" xlink:href="#m3c66d3c19c" y="39.149299"/>
     <use style="fill:#3ea44e;stroke:#000000;" x="231.861708" xlink:href="#m3c66d3c19c" y="197.095932"/>
     <use style="fill:#3ea44e;stroke:#000000;" x="245.270694" xlink:href="#m3c66d3c19c" y="204.029553"/>
     <use style="fill:#3ea44e;stroke:#000000;" x="272.088665" xlink:href="#m3c66d3c19c" y="99.660808"/>
     <use style="fill:#3ea44e;stroke:#000000;" x="285.497651" xlink:href="#m3c66d3c19c" y="107.205573"/>
     <use style="fill:#3ea44e;stroke:#000000;" x="312.315622" xlink:href="#m3c66d3c19c" y="248.447403"/>
     <use style="fill:#3ea44e;stroke:#000000;" x="325.724608" xlink:href="#m3c66d3c19c" y="265.825429"/>
     <use style="fill:#3ea44e;stroke:#000000;" x="358.289287" xlink:href="#m3c66d3c19c" y="152.782911"/>
     <use style="fill:#3ea44e;stroke:#000000;" x="392.769536" xlink:href="#m3c66d3c19c" y="154.000393"/>
     <use style="fill:#3ea44e;stroke:#000000;" x="417.671938" xlink:href="#m3c66d3c19c" y="94.796801"/>
    </g>
   </g>
   <g id="legend_1">
    <g id="patch_5">
     <path d="M 256.185354 44.462146 
L 423.565354 44.462146 
Q 425.165354 44.462146 425.165354 42.862146 
L 425.165354 8.434646 
Q 425.165354 6.834646 423.565354 6.834646 
L 256.185354 6.834646 
Q 254.585354 6.834646 254.585354 8.434646 
L 254.585354 42.862146 
Q 254.585354 44.462146 256.185354 44.462146 
z
" style="fill:#ffffff;opacity:0.8;stroke:#000000;stroke-linejoin:miter;"/>
    </g>
    <g id="line2d_30">
     <path d="M 257.785354 13.313396 
L 273.785354 13.313396 
" style="fill:none;stroke:#000000;stroke-linecap:round;stroke-width:2;"/>
    </g>
    <g id="line2d_31"/>
    <g id="text_14">
     <!-- sin(x) + 0.5sin(3.5x) + 0.5sin(5.1x) -->
     <defs>
      <path d="M 44.28125 53.078125 
L 44.28125 44.578125 
Q 40.484375 46.53125 36.375 47.5 
Q 32.28125 48.484375 27.875 48.484375 
Q 21.1875 48.484375 17.84375 46.4375 
Q 14.5 44.390625 14.5 40.28125 
Q 14.5 37.15625 16.890625 35.375 
Q 19.28125 33.59375 26.515625 31.984375 
L 29.59375 31.296875 
Q 39.15625 29.25 43.1875 25.515625 
Q 47.21875 21.78125 47.21875 15.09375 
Q 47.21875 7.46875 41.1875 3.015625 
Q 35.15625 -1.421875 24.609375 -1.421875 
Q 20.21875 -1.421875 15.453125 -0.5625 
Q 10.6875 0.296875 5.421875 2 
L 5.421875 11.28125 
Q 10.40625 8.6875 15.234375 7.390625 
Q 20.0625 6.109375 24.8125 6.109375 
Q 31.15625 6.109375 34.5625 8.28125 
Q 37.984375 10.453125 37.984375 14.40625 
Q 37.984375 18.0625 35.515625 20.015625 
Q 33.0625 21.96875 24.703125 23.78125 
L 21.578125 24.515625 
Q 13.234375 26.265625 9.515625 29.90625 
Q 5.8125 33.546875 5.8125 39.890625 
Q 5.8125 47.609375 11.28125 51.796875 
Q 16.75 56 26.8125 56 
Q 31.78125 56 36.171875 55.265625 
Q 40.578125 54.546875 44.28125 53.078125 
z
" id="DejaVuSans-73"/>
      <path d="M 9.421875 54.6875 
L 18.40625 54.6875 
L 18.40625 0 
L 9.421875 0 
z
M 9.421875 75.984375 
L 18.40625 75.984375 
L 18.40625 64.59375 
L 9.421875 64.59375 
z
" id="DejaVuSans-69"/>
      <path d="M 54.890625 33.015625 
L 54.890625 0 
L 45.90625 0 
L 45.90625 32.71875 
Q 45.90625 40.484375 42.875 44.328125 
Q 39.84375 48.1875 33.796875 48.1875 
Q 26.515625 48.1875 22.3125 43.546875 
Q 18.109375 38.921875 18.109375 30.90625 
L 18.109375 0 
L 9.078125 0 
L 9.078125 54.6875 
L 18.109375 54.6875 
L 18.109375 46.1875 
Q 21.34375 51.125 25.703125 53.5625 
Q 30.078125 56 35.796875 56 
Q 45.21875 56 50.046875 50.171875 
Q 54.890625 44.34375 54.890625 33.015625 
z
" id="DejaVuSans-6e"/>
      <path d="M 31 75.875 
Q 24.46875 64.65625 21.28125 53.65625 
Q 18.109375 42.671875 18.109375 31.390625 
Q 18.109375 20.125 21.3125 9.0625 
Q 24.515625 -2 31 -13.1875 
L 23.1875 -13.1875 
Q 15.875 -1.703125 12.234375 9.375 
Q 8.59375 20.453125 8.59375 31.390625 
Q 8.59375 42.28125 12.203125 53.3125 
Q 15.828125 64.359375 23.1875 75.875 
z
" id="DejaVuSans-28"/>
      <path d="M 54.890625 54.6875 
L 35.109375 28.078125 
L 55.90625 0 
L 45.3125 0 
L 29.390625 21.484375 
L 13.484375 0 
L 2.875 0 
L 24.125 28.609375 
L 4.6875 54.6875 
L 15.28125 54.6875 
L 29.78125 35.203125 
L 44.28125 54.6875 
z
" id="DejaVuSans-78"/>
      <path d="M 8.015625 75.875 
L 15.828125 75.875 
Q 23.140625 64.359375 26.78125 53.3125 
Q 30.421875 42.28125 30.421875 31.390625 
Q 30.421875 20.453125 26.78125 9.375 
Q 23.140625 -1.703125 15.828125 -13.1875 
L 8.015625 -13.1875 
Q 14.5 -2 17.703125 9.0625 
Q 20.90625 20.125 20.90625 31.390625 
Q 20.90625 42.671875 17.703125 53.65625 
Q 14.5 64.65625 8.015625 75.875 
z
" id="DejaVuSans-29"/>
      <path id="DejaVuSans-20"/>
      <path d="M 46 62.703125 
L 46 35.5 
L 73.1875 35.5 
L 73.1875 27.203125 
L 46 27.203125 
L 46 0 
L 37.796875 0 
L 37.796875 27.203125 
L 10.59375 27.203125 
L 10.59375 35.5 
L 37.796875 35.5 
L 37.796875 62.703125 
z
" id="DejaVuSans-2b"/>
     </defs>
     <g transform="translate(280.185354 16.113396)scale(0.08 -0.08)">
      <use xlink:href="#DejaVuSans-73"/>
      <use x="52.099609" xlink:href="#DejaVuSans-69"/>
      <use x="79.882812" xlink:href="#DejaVuSans-6e"/>
      <use x="143.261719" xlink:href="#DejaVuSans-28"/>
      <use x="182.275391" xlink:href="#DejaVuSans-78"/>
      <use x="241.455078" xlink:href="#DejaVuSans-29"/>
      <use x="280.46875" xlink:href="#DejaVuSans-20"/>
      <use x="312.255859" xlink:href="#DejaVuSans-2b"/>
      <use x="396.044922" xlink:href="#DejaVuSans-20"/>
      <use x="427.832031" xlink:href="#DejaVuSans-30"/>
      <use x="491.455078" xlink:href="#DejaVuSans-2e"/>
      <use x="523.242188" xlink:href="#DejaVuSans-35"/>
      <use x="586.865234" xlink:href="#DejaVuSans-73"/>
      <use x="638.964844" xlink:href="#DejaVuSans-69"/>
      <use x="666.748047" xlink:href="#DejaVuSans-6e"/>
      <use x="730.126953" xlink:href="#DejaVuSans-28"/>
      <use x="769.140625" xlink:href="#DejaVuSans-33"/>
      <use x="832.763672" xlink:href="#DejaVuSans-2e"/>
      <use x="864.550781" xlink:href="#DejaVuSans-35"/>
      <use x="928.173828" xlink:href="#DejaVuSans-78"/>
      <use x="987.353516" xlink:href="#DejaVuSans-29"/>
      <use x="1026.367188" xlink:href="#DejaVuSans-20"/>
      <use x="1058.154297" xlink:href="#DejaVuSans-2b"/>
      <use x="1141.943359" xlink:href="#DejaVuSans-20"/>
      <use x="1173.730469" xlink:href="#DejaVuSans-30"/>
      <use x="1237.353516" xlink:href="#DejaVuSans-2e"/>
      <use x="1269.140625" xlink:href="#DejaVuSans-35"/>
      <use x="1332.763672" xlink:href="#DejaVuSans-73"/>
      <use x="1384.863281" xlink:href="#DejaVuSans-69"/>
      <use x="1412.646484" xlink:href="#DejaVuSans-6e"/>
      <use x="1476.025391" xlink:href="#DejaVuSans-28"/>
      <use x="1515.039062" xlink:href="#DejaVuSans-35"/>
      <use x="1578.662109" xlink:href="#DejaVuSans-2e"/>
      <use x="1610.449219" xlink:href="#DejaVuSans-31"/>
      <use x="1674.072266" xlink:href="#DejaVuSans-78"/>
      <use x="1733.251953" xlink:href="#DejaVuSans-29"/>
     </g>
    </g>
    <g id="line2d_32">
     <path d="M 257.785354 25.055896 
L 273.785354 25.055896 
" style="fill:none;stroke:#e36f47;stroke-linecap:round;stroke-width:2;"/>
    </g>
    <g id="line2d_33"/>
    <g id="text_15">
     <!-- l2-norm=0.351, zeta=0.1 -->
     <defs>
      <path d="M 9.421875 75.984375 
L 18.40625 75.984375 
L 18.40625 0 
L 9.421875 0 
z
" id="DejaVuSans-6c"/>
      <path d="M 30.609375 48.390625 
Q 23.390625 48.390625 19.1875 42.75 
Q 14.984375 37.109375 14.984375 27.296875 
Q 14.984375 17.484375 19.15625 11.84375 
Q 23.34375 6.203125 30.609375 6.203125 
Q 37.796875 6.203125 41.984375 11.859375 
Q 46.1875 17.53125 46.1875 27.296875 
Q 46.1875 37.015625 41.984375 42.703125 
Q 37.796875 48.390625 30.609375 48.390625 
z
M 30.609375 56 
Q 42.328125 56 49.015625 48.375 
Q 55.71875 40.765625 55.71875 27.296875 
Q 55.71875 13.875 49.015625 6.21875 
Q 42.328125 -1.421875 30.609375 -1.421875 
Q 18.84375 -1.421875 12.171875 6.21875 
Q 5.515625 13.875 5.515625 27.296875 
Q 5.515625 40.765625 12.171875 48.375 
Q 18.84375 56 30.609375 56 
z
" id="DejaVuSans-6f"/>
      <path d="M 41.109375 46.296875 
Q 39.59375 47.171875 37.8125 47.578125 
Q 36.03125 48 33.890625 48 
Q 26.265625 48 22.1875 43.046875 
Q 18.109375 38.09375 18.109375 28.8125 
L 18.109375 0 
L 9.078125 0 
L 9.078125 54.6875 
L 18.109375 54.6875 
L 18.109375 46.1875 
Q 20.953125 51.171875 25.484375 53.578125 
Q 30.03125 56 36.53125 56 
Q 37.453125 56 38.578125 55.875 
Q 39.703125 55.765625 41.0625 55.515625 
z
" id="DejaVuSans-72"/>
      <path d="M 52 44.1875 
Q 55.375 50.25 60.0625 53.125 
Q 64.75 56 71.09375 56 
Q 79.640625 56 84.28125 50.015625 
Q 88.921875 44.046875 88.921875 33.015625 
L 88.921875 0 
L 79.890625 0 
L 79.890625 32.71875 
Q 79.890625 40.578125 77.09375 44.375 
Q 74.3125 48.1875 68.609375 48.1875 
Q 61.625 48.1875 57.5625 43.546875 
Q 53.515625 38.921875 53.515625 30.90625 
L 53.515625 0 
L 44.484375 0 
L 44.484375 32.71875 
Q 44.484375 40.625 41.703125 44.40625 
Q 38.921875 48.1875 33.109375 48.1875 
Q 26.21875 48.1875 22.15625 43.53125 
Q 18.109375 38.875 18.109375 30.90625 
L 18.109375 0 
L 9.078125 0 
L 9.078125 54.6875 
L 18.109375 54.6875 
L 18.109375 46.1875 
Q 21.1875 51.21875 25.484375 53.609375 
Q 29.78125 56 35.6875 56 
Q 41.65625 56 45.828125 52.96875 
Q 50 49.953125 52 44.1875 
z
" id="DejaVuSans-6d"/>
      <path d="M 10.59375 45.40625 
L 73.1875 45.40625 
L 73.1875 37.203125 
L 10.59375 37.203125 
z
M 10.59375 25.484375 
L 73.1875 25.484375 
L 73.1875 17.1875 
L 10.59375 17.1875 
z
" id="DejaVuSans-3d"/>
      <path d="M 11.71875 12.40625 
L 22.015625 12.40625 
L 22.015625 4 
L 14.015625 -11.625 
L 7.71875 -11.625 
L 11.71875 4 
z
" id="DejaVuSans-2c"/>
      <path d="M 5.515625 54.6875 
L 48.1875 54.6875 
L 48.1875 46.484375 
L 14.40625 7.171875 
L 48.1875 7.171875 
L 48.1875 0 
L 4.296875 0 
L 4.296875 8.203125 
L 38.09375 47.515625 
L 5.515625 47.515625 
z
" id="DejaVuSans-7a"/>
      <path d="M 56.203125 29.59375 
L 56.203125 25.203125 
L 14.890625 25.203125 
Q 15.484375 15.921875 20.484375 11.0625 
Q 25.484375 6.203125 34.421875 6.203125 
Q 39.59375 6.203125 44.453125 7.46875 
Q 49.3125 8.734375 54.109375 11.28125 
L 54.109375 2.78125 
Q 49.265625 0.734375 44.1875 -0.34375 
Q 39.109375 -1.421875 33.890625 -1.421875 
Q 20.796875 -1.421875 13.15625 6.1875 
Q 5.515625 13.8125 5.515625 26.8125 
Q 5.515625 40.234375 12.765625 48.109375 
Q 20.015625 56 32.328125 56 
Q 43.359375 56 49.78125 48.890625 
Q 56.203125 41.796875 56.203125 29.59375 
z
M 47.21875 32.234375 
Q 47.125 39.59375 43.09375 43.984375 
Q 39.0625 48.390625 32.421875 48.390625 
Q 24.90625 48.390625 20.390625 44.140625 
Q 15.875 39.890625 15.1875 32.171875 
z
" id="DejaVuSans-65"/>
      <path d="M 18.3125 70.21875 
L 18.3125 54.6875 
L 36.8125 54.6875 
L 36.8125 47.703125 
L 18.3125 47.703125 
L 18.3125 18.015625 
Q 18.3125 11.328125 20.140625 9.421875 
Q 21.96875 7.515625 27.59375 7.515625 
L 36.8125 7.515625 
L 36.8125 0 
L 27.59375 0 
Q 17.1875 0 13.234375 3.875 
Q 9.28125 7.765625 9.28125 18.015625 
L 9.28125 47.703125 
L 2.6875 47.703125 
L 2.6875 54.6875 
L 9.28125 54.6875 
L 9.28125 70.21875 
z
" id="DejaVuSans-74"/>
      <path d="M 34.28125 27.484375 
Q 23.390625 27.484375 19.1875 25 
Q 14.984375 22.515625 14.984375 16.5 
Q 14.984375 11.71875 18.140625 8.90625 
Q 21.296875 6.109375 26.703125 6.109375 
Q 34.1875 6.109375 38.703125 11.40625 
Q 43.21875 16.703125 43.21875 25.484375 
L 43.21875 27.484375 
z
M 52.203125 31.203125 
L 52.203125 0 
L 43.21875 0 
L 43.21875 8.296875 
Q 40.140625 3.328125 35.546875 0.953125 
Q 30.953125 -1.421875 24.3125 -1.421875 
Q 15.921875 -1.421875 10.953125 3.296875 
Q 6 8.015625 6 15.921875 
Q 6 25.140625 12.171875 29.828125 
Q 18.359375 34.515625 30.609375 34.515625 
L 43.21875 34.515625 
L 43.21875 35.40625 
Q 43.21875 41.609375 39.140625 45 
Q 35.0625 48.390625 27.6875 48.390625 
Q 23 48.390625 18.546875 47.265625 
Q 14.109375 46.140625 10.015625 43.890625 
L 10.015625 52.203125 
Q 14.9375 54.109375 19.578125 55.046875 
Q 24.21875 56 28.609375 56 
Q 40.484375 56 46.34375 49.84375 
Q 52.203125 43.703125 52.203125 31.203125 
z
" id="DejaVuSans-61"/>
     </defs>
     <g transform="translate(280.185354 27.855896)scale(0.08 -0.08)">
      <use xlink:href="#DejaVuSans-6c"/>
      <use x="27.783203" xlink:href="#DejaVuSans-32"/>
      <use x="91.40625" xlink:href="#DejaVuSans-2d"/>
      <use x="127.490234" xlink:href="#DejaVuSans-6e"/>
      <use x="190.869141" xlink:href="#DejaVuSans-6f"/>
      <use x="252.050781" xlink:href="#DejaVuSans-72"/>
      <use x="293.148438" xlink:href="#DejaVuSans-6d"/>
      <use x="390.560547" xlink:href="#DejaVuSans-3d"/>
      <use x="474.349609" xlink:href="#DejaVuSans-30"/>
      <use x="537.972656" xlink:href="#DejaVuSans-2e"/>
      <use x="569.759766" xlink:href="#DejaVuSans-33"/>
      <use x="633.382812" xlink:href="#DejaVuSans-35"/>
      <use x="697.005859" xlink:href="#DejaVuSans-31"/>
      <use x="760.628906" xlink:href="#DejaVuSans-2c"/>
      <use x="792.416016" xlink:href="#DejaVuSans-20"/>
      <use x="824.203125" xlink:href="#DejaVuSans-7a"/>
      <use x="876.693359" xlink:href="#DejaVuSans-65"/>
      <use x="938.216797" xlink:href="#DejaVuSans-74"/>
      <use x="977.425781" xlink:href="#DejaVuSans-61"/>
      <use x="1038.705078" xlink:href="#DejaVuSans-3d"/>
      <use x="1122.494141" xlink:href="#DejaVuSans-30"/>
      <use x="1186.117188" xlink:href="#DejaVuSans-2e"/>
      <use x="1217.904297" xlink:href="#DejaVuSans-31"/>
     </g>
    </g>
    <g id="line2d_34">
     <path d="M 257.785354 36.798396 
L 273.785354 36.798396 
" style="fill:none;stroke:#3ea44e;stroke-linecap:round;stroke-width:2;"/>
    </g>
    <g id="line2d_35"/>
    <g id="text_16">
     <!-- l2-norm=0.006, zeta=0.002 -->
     <g transform="translate(280.185354 39.598396)scale(0.08 -0.08)">
      <use xlink:href="#DejaVuSans-6c"/>
      <use x="27.783203" xlink:href="#DejaVuSans-32"/>
      <use x="91.40625" xlink:href="#DejaVuSans-2d"/>
      <use x="127.490234" xlink:href="#DejaVuSans-6e"/>
      <use x="190.869141" xlink:href="#DejaVuSans-6f"/>
      <use x="252.050781" xlink:href="#DejaVuSans-72"/>
      <use x="293.148438" xlink:href="#DejaVuSans-6d"/>
      <use x="390.560547" xlink:href="#DejaVuSans-3d"/>
      <use x="474.349609" xlink:href="#DejaVuSans-30"/>
      <use x="537.972656" xlink:href="#DejaVuSans-2e"/>
      <use x="569.759766" xlink:href="#DejaVuSans-30"/>
      <use x="633.382812" xlink:href="#DejaVuSans-30"/>
      <use x="697.005859" xlink:href="#DejaVuSans-36"/>
      <use x="760.628906" xlink:href="#DejaVuSans-2c"/>
      <use x="792.416016" xlink:href="#DejaVuSans-20"/>
      <use x="824.203125" xlink:href="#DejaVuSans-7a"/>
      <use x="876.693359" xlink:href="#DejaVuSans-65"/>
      <use x="938.216797" xlink:href="#DejaVuSans-74"/>
      <use x="977.425781" xlink:href="#DejaVuSans-61"/>
      <use x="1038.705078" xlink:href="#DejaVuSans-3d"/>
      <use x="1122.494141" xlink:href="#DejaVuSans-30"/>
      <use x="1186.117188" xlink:href="#DejaVuSans-2e"/>
      <use x="1217.904297" xlink:href="#DejaVuSans-30"/>
      <use x="1281.527344" xlink:href="#DejaVuSans-30"/>
      <use x="1345.150391" xlink:href="#DejaVuSans-32"/>
     </g>
    </g>
   </g>
  </g>
 </g>
 <defs>
  <clipPath id="p3c0c2691a6">
   <rect height="270.650709" width="406.100709" x="23.064646" y="2.834646"/>
  </clipPath>
 </defs>
</svg>
