<?xml version="1.0" encoding="utf-8"?>
<svg xmlns="http://www.w3.org/2000/svg" xmlns:xlink="http://www.w3.org/1999/xlink" width="600" height="400" viewBox="0 0 600 400">
<defs>
  <clipPath id="clip00">
    <rect x="0" y="0" width="600" height="400"/>
  </clipPath>
</defs>
<polygon clip-path="url(#clip00)" points="
0,400 600,400 600,0 0,0 
  " fill="#ffffff" fill-opacity="1"/>
<defs>
  <clipPath id="clip01">
    <rect x="120" y="0" width="421" height="400"/>
  </clipPath>
</defs>
<polygon clip-path="url(#clip00)" points="
39.1436,373.234 580.315,373.234 580.315,11.811 39.1436,11.811 
  " fill="#ffffff" fill-opacity="1"/>
<defs>
  <clipPath id="clip02">
    <rect x="39" y="11" width="542" height="362"/>
  </clipPath>
</defs>
<polyline clip-path="url(#clip02)" style="stroke:#000000; stroke-width:0.5; stroke-opacity:0.1; fill:none" points="
  54.4598,367.813 54.4598,17.2324 
  "/>
<polyline clip-path="url(#clip02)" style="stroke:#000000; stroke-width:0.5; stroke-opacity:0.1; fill:none" points="
  135.715,367.813 135.715,17.2324 
  "/>
<polyline clip-path="url(#clip02)" style="stroke:#000000; stroke-width:0.5; stroke-opacity:0.1; fill:none" points="
  216.969,367.813 216.969,17.2324 
  "/>
<polyline clip-path="url(#clip02)" style="stroke:#000000; stroke-width:0.5; stroke-opacity:0.1; fill:none" points="
  298.224,367.813 298.224,17.2324 
  "/>
<polyline clip-path="url(#clip02)" style="stroke:#000000; stroke-width:0.5; stroke-opacity:0.1; fill:none" points="
  379.479,367.813 379.479,17.2324 
  "/>
<polyline clip-path="url(#clip02)" style="stroke:#000000; stroke-width:0.5; stroke-opacity:0.1; fill:none" points="
  460.734,367.813 460.734,17.2324 
  "/>
<polyline clip-path="url(#clip02)" style="stroke:#000000; stroke-width:0.5; stroke-opacity:0.1; fill:none" points="
  541.989,367.813 541.989,17.2324 
  "/>
<polyline clip-path="url(#clip02)" style="stroke:#000000; stroke-width:0.5; stroke-opacity:0.1; fill:none" points="
  47.2612,325.987 572.197,325.987 
  "/>
<polyline clip-path="url(#clip02)" style="stroke:#000000; stroke-width:0.5; stroke-opacity:0.1; fill:none" points="
  47.2612,272.963 572.197,272.963 
  "/>
<polyline clip-path="url(#clip02)" style="stroke:#000000; stroke-width:0.5; stroke-opacity:0.1; fill:none" points="
  47.2612,219.939 572.197,219.939 
  "/>
<polyline clip-path="url(#clip02)" style="stroke:#000000; stroke-width:0.5; stroke-opacity:0.1; fill:none" points="
  47.2612,166.914 572.197,166.914 
  "/>
<polyline clip-path="url(#clip02)" style="stroke:#000000; stroke-width:0.5; stroke-opacity:0.1; fill:none" points="
  47.2612,113.89 572.197,113.89 
  "/>
<polyline clip-path="url(#clip02)" style="stroke:#000000; stroke-width:0.5; stroke-opacity:0.1; fill:none" points="
  47.2612,60.8658 572.197,60.8658 
  "/>
<polyline clip-path="url(#clip00)" style="stroke:#000000; stroke-width:1; stroke-opacity:1; fill:none" points="
  39.1436,373.234 580.315,373.234 
  "/>
<polyline clip-path="url(#clip00)" style="stroke:#000000; stroke-width:1; stroke-opacity:1; fill:none" points="
  39.1436,373.234 39.1436,11.811 
  "/>
<polyline clip-path="url(#clip00)" style="stroke:#000000; stroke-width:1; stroke-opacity:1; fill:none" points="
  54.4598,373.234 54.4598,367.813 
  "/>
<polyline clip-path="url(#clip00)" style="stroke:#000000; stroke-width:1; stroke-opacity:1; fill:none" points="
  135.715,373.234 135.715,367.813 
  "/>
<polyline clip-path="url(#clip00)" style="stroke:#000000; stroke-width:1; stroke-opacity:1; fill:none" points="
  216.969,373.234 216.969,367.813 
  "/>
<polyline clip-path="url(#clip00)" style="stroke:#000000; stroke-width:1; stroke-opacity:1; fill:none" points="
  298.224,373.234 298.224,367.813 
  "/>
<polyline clip-path="url(#clip00)" style="stroke:#000000; stroke-width:1; stroke-opacity:1; fill:none" points="
  379.479,373.234 379.479,367.813 
  "/>
<polyline clip-path="url(#clip00)" style="stroke:#000000; stroke-width:1; stroke-opacity:1; fill:none" points="
  460.734,373.234 460.734,367.813 
  "/>
<polyline clip-path="url(#clip00)" style="stroke:#000000; stroke-width:1; stroke-opacity:1; fill:none" points="
  541.989,373.234 541.989,367.813 
  "/>
<polyline clip-path="url(#clip00)" style="stroke:#000000; stroke-width:1; stroke-opacity:1; fill:none" points="
  39.1436,325.987 47.2612,325.987 
  "/>
<polyline clip-path="url(#clip00)" style="stroke:#000000; stroke-width:1; stroke-opacity:1; fill:none" points="
  39.1436,272.963 47.2612,272.963 
  "/>
<polyline clip-path="url(#clip00)" style="stroke:#000000; stroke-width:1; stroke-opacity:1; fill:none" points="
  39.1436,219.939 47.2612,219.939 
  "/>
<polyline clip-path="url(#clip00)" style="stroke:#000000; stroke-width:1; stroke-opacity:1; fill:none" points="
  39.1436,166.914 47.2612,166.914 
  "/>
<polyline clip-path="url(#clip00)" style="stroke:#000000; stroke-width:1; stroke-opacity:1; fill:none" points="
  39.1436,113.89 47.2612,113.89 
  "/>
<polyline clip-path="url(#clip00)" style="stroke:#000000; stroke-width:1; stroke-opacity:1; fill:none" points="
  39.1436,60.8658 47.2612,60.8658 
  "/>
<g clip-path="url(#clip00)">
<text style="fill:#000000; fill-opacity:1; font-family:Arial,Helvetica Neue,Helvetica,sans-serif; font-size:12; text-anchor:middle;" transform="rotate(0, 54.4598, 387.034)" x="54.4598" y="387.034">0</text>
</g>
<g clip-path="url(#clip00)">
<text style="fill:#000000; fill-opacity:1; font-family:Arial,Helvetica Neue,Helvetica,sans-serif; font-size:12; text-anchor:middle;" transform="rotate(0, 135.715, 387.034)" x="135.715" y="387.034">1</text>
</g>
<g clip-path="url(#clip00)">
<text style="fill:#000000; fill-opacity:1; font-family:Arial,Helvetica Neue,Helvetica,sans-serif; font-size:12; text-anchor:middle;" transform="rotate(0, 216.969, 387.034)" x="216.969" y="387.034">2</text>
</g>
<g clip-path="url(#clip00)">
<text style="fill:#000000; fill-opacity:1; font-family:Arial,Helvetica Neue,Helvetica,sans-serif; font-size:12; text-anchor:middle;" transform="rotate(0, 298.224, 387.034)" x="298.224" y="387.034">3</text>
</g>
<g clip-path="url(#clip00)">
<text style="fill:#000000; fill-opacity:1; font-family:Arial,Helvetica Neue,Helvetica,sans-serif; font-size:12; text-anchor:middle;" transform="rotate(0, 379.479, 387.034)" x="379.479" y="387.034">4</text>
</g>
<g clip-path="url(#clip00)">
<text style="fill:#000000; fill-opacity:1; font-family:Arial,Helvetica Neue,Helvetica,sans-serif; font-size:12; text-anchor:middle;" transform="rotate(0, 460.734, 387.034)" x="460.734" y="387.034">5</text>
</g>
<g clip-path="url(#clip00)">
<text style="fill:#000000; fill-opacity:1; font-family:Arial,Helvetica Neue,Helvetica,sans-serif; font-size:12; text-anchor:middle;" transform="rotate(0, 541.989, 387.034)" x="541.989" y="387.034">6</text>
</g>
<g clip-path="url(#clip00)">
<text style="fill:#000000; fill-opacity:1; font-family:Arial,Helvetica Neue,Helvetica,sans-serif; font-size:12; text-anchor:end;" transform="rotate(0, 33.1436, 330.487)" x="33.1436" y="330.487">-1.5</text>
</g>
<g clip-path="url(#clip00)">
<text style="fill:#000000; fill-opacity:1; font-family:Arial,Helvetica Neue,Helvetica,sans-serif; font-size:12; text-anchor:end;" transform="rotate(0, 33.1436, 277.463)" x="33.1436" y="277.463">-1.0</text>
</g>
<g clip-path="url(#clip00)">
<text style="fill:#000000; fill-opacity:1; font-family:Arial,Helvetica Neue,Helvetica,sans-serif; font-size:12; text-anchor:end;" transform="rotate(0, 33.1436, 224.439)" x="33.1436" y="224.439">-0.5</text>
</g>
<g clip-path="url(#clip00)">
<text style="fill:#000000; fill-opacity:1; font-family:Arial,Helvetica Neue,Helvetica,sans-serif; font-size:12; text-anchor:end;" transform="rotate(0, 33.1436, 171.414)" x="33.1436" y="171.414">0.0</text>
</g>
<g clip-path="url(#clip00)">
<text style="fill:#000000; fill-opacity:1; font-family:Arial,Helvetica Neue,Helvetica,sans-serif; font-size:12; text-anchor:end;" transform="rotate(0, 33.1436, 118.39)" x="33.1436" y="118.39">0.5</text>
</g>
<g clip-path="url(#clip00)">
<text style="fill:#000000; fill-opacity:1; font-family:Arial,Helvetica Neue,Helvetica,sans-serif; font-size:12; text-anchor:end;" transform="rotate(0, 33.1436, 65.3658)" x="33.1436" y="65.3658">1.0</text>
</g>
<polyline clip-path="url(#clip02)" style="stroke:#000000; stroke-width:2; stroke-opacity:1; fill:none" points="
  54.4598,166.914 57.0125,149.305 59.5651,131.987 62.1178,115.242 64.6705,99.3429 67.2232,84.5415 69.7759,71.0665 72.3286,59.1174 74.8813,48.8603 77.434,40.4246 
  79.9867,33.9005 82.5394,29.3368 85.0921,26.7412 87.6448,26.0794 90.1975,27.2772 92.7502,30.2225 95.3029,34.7678 97.8556,40.7348 100.408,47.9184 102.961,56.0918 
  105.514,65.0125 108.066,74.4275 110.619,84.0798 113.172,93.7145 115.724,103.084 118.277,111.955 120.83,120.112 123.383,127.364 125.935,133.547 128.488,138.526 
  131.041,142.203 133.593,144.512 136.146,145.424 138.699,144.946 141.251,143.118 143.804,140.014 146.357,135.738 148.909,130.421 151.462,124.216 154.015,117.294 
  156.568,109.84 159.12,102.046 161.673,94.1089 164.226,86.2215 166.778,78.5699 169.331,71.328 171.884,64.6528 174.436,58.6813 176.989,53.5266 179.542,49.2759 
  182.095,45.9882 184.647,43.6938 187.2,42.3941 189.753,42.062 192.305,42.6436 194.858,44.0605 197.411,46.2122 199.963,48.9801 202.516,52.2314 205.069,55.823 
  207.621,59.6066 210.174,63.4331 212.727,67.1575 215.28,70.6434 217.832,73.7673 220.385,76.4225 222.938,78.5228 225.49,80.0048 228.043,80.8305 230.596,80.9886 
  233.148,80.4951 235.701,79.3933 238.254,77.7527 240.807,75.667 243.359,73.2524 245.912,70.6438 248.465,67.9911 251.017,65.4555 253.57,63.2042 256.123,61.4063 
  258.675,60.2271 261.228,59.8236 263.781,60.3397 266.333,61.9011 268.886,64.6119 271.439,68.5505 273.992,73.7668 276.544,80.2795 279.097,88.0753 281.65,97.1077 
  284.202,107.297 286.755,118.533 289.308,130.673 291.86,143.55 294.413,156.97 296.966,170.724 299.518,184.583 302.071,198.312 304.624,211.67 307.177,224.418 
  309.729,236.324 312.282,247.17 314.835,256.756 317.387,264.906 319.94,271.47 322.493,276.332 325.045,279.412 327.598,280.668 330.151,280.094 332.704,277.729 
  335.256,273.647 337.809,267.965 340.362,260.833 342.914,252.434 345.467,242.984 348.02,232.72 350.572,221.899 353.125,210.794 355.678,199.683 358.23,188.847 
  360.783,178.562 363.336,169.092 365.889,160.683 368.441,153.561 370.994,147.921 373.547,143.926 376.099,141.704 378.652,141.342 381.205,142.887 383.757,146.344 
  386.31,151.675 388.863,158.8 391.416,167.6 393.968,177.921 396.521,189.574 399.074,202.342 401.626,215.983 404.179,230.239 406.732,244.839 409.284,259.507 
  411.837,273.964 414.39,287.941 416.942,301.181 419.495,313.444 422.048,324.513 424.601,334.201 427.153,342.351 429.706,348.842 432.259,353.588 434.811,356.544 
  437.364,357.702 439.917,357.092 442.469,354.781 445.022,350.871 447.575,345.493 450.128,338.808 452.68,330.997 455.233,322.261 457.786,312.812 460.338,302.87 
  462.891,292.657 465.444,282.39 467.996,272.276 470.549,262.509 473.102,253.265 475.654,244.696 478.207,236.928 480.76,230.058 483.313,224.155 485.865,219.255 
  488.418,215.364 490.971,212.458 493.523,210.482 496.076,209.358 498.629,208.982 501.181,209.232 503.734,209.971 506.287,211.049 508.839,212.31 511.392,213.599 
  513.945,214.763 516.498,215.654 519.05,216.142 521.603,216.11 524.156,215.461 526.708,214.121 529.261,212.043 531.814,209.203 534.366,205.606 536.919,201.284 
  539.472,196.296 542.025,190.722 544.577,184.667 547.13,178.254 549.683,171.62 552.235,164.915 554.788,158.296 557.341,151.918 559.893,145.938 562.446,140.503 
  564.999,135.748 
  "/>
<polyline clip-path="url(#clip02)" style="stroke:#e26f46; stroke-width:2; stroke-opacity:1; fill:none" points="
  54.4598,90.3249 273.992,66.4231 325.045,298.764 381.205,122.444 427.153,347.505 564.999,137.693 
  "/>
<circle clip-path="url(#clip02)" style="fill:#000000; stroke:none; fill-opacity:1" cx="54.4598" cy="90.3249" r="4"/>
<circle clip-path="url(#clip02)" style="fill:#e26f46; stroke:none; fill-opacity:1" cx="54.4598" cy="90.3249" r="3"/>
<circle clip-path="url(#clip02)" style="fill:#000000; stroke:none; fill-opacity:1" cx="273.992" cy="66.4231" r="4"/>
<circle clip-path="url(#clip02)" style="fill:#e26f46; stroke:none; fill-opacity:1" cx="273.992" cy="66.4231" r="3"/>
<circle clip-path="url(#clip02)" style="fill:#000000; stroke:none; fill-opacity:1" cx="325.045" cy="298.764" r="4"/>
<circle clip-path="url(#clip02)" style="fill:#e26f46; stroke:none; fill-opacity:1" cx="325.045" cy="298.764" r="3"/>
<circle clip-path="url(#clip02)" style="fill:#000000; stroke:none; fill-opacity:1" cx="381.205" cy="122.444" r="4"/>
<circle clip-path="url(#clip02)" style="fill:#e26f46; stroke:none; fill-opacity:1" cx="381.205" cy="122.444" r="3"/>
<circle clip-path="url(#clip02)" style="fill:#000000; stroke:none; fill-opacity:1" cx="427.153" cy="347.505" r="4"/>
<circle clip-path="url(#clip02)" style="fill:#e26f46; stroke:none; fill-opacity:1" cx="427.153" cy="347.505" r="3"/>
<circle clip-path="url(#clip02)" style="fill:#000000; stroke:none; fill-opacity:1" cx="564.999" cy="137.693" r="4"/>
<circle clip-path="url(#clip02)" style="fill:#e26f46; stroke:none; fill-opacity:1" cx="564.999" cy="137.693" r="3"/>
<polyline clip-path="url(#clip02)" style="stroke:#3da44d; stroke-width:2; stroke-opacity:1; fill:none" points="
  54.4598,162.115 74.8813,42.4772 90.1975,22.04 136.146,158.842 184.647,35.7766 225.49,80.2337 273.992,60.3051 317.387,271.225 335.256,280.484 370.994,141.111 
  388.863,151.186 424.601,339.799 442.469,363.005 485.865,212.05 531.814,213.676 564.999,134.616 
  "/>
<circle clip-path="url(#clip02)" style="fill:#000000; stroke:none; fill-opacity:1" cx="54.4598" cy="162.115" r="4"/>
<circle clip-path="url(#clip02)" style="fill:#3da44d; stroke:none; fill-opacity:1" cx="54.4598" cy="162.115" r="3"/>
<circle clip-path="url(#clip02)" style="fill:#000000; stroke:none; fill-opacity:1" cx="74.8813" cy="42.4772" r="4"/>
<circle clip-path="url(#clip02)" style="fill:#3da44d; stroke:none; fill-opacity:1" cx="74.8813" cy="42.4772" r="3"/>
<circle clip-path="url(#clip02)" style="fill:#000000; stroke:none; fill-opacity:1" cx="90.1975" cy="22.04" r="4"/>
<circle clip-path="url(#clip02)" style="fill:#3da44d; stroke:none; fill-opacity:1" cx="90.1975" cy="22.04" r="3"/>
<circle clip-path="url(#clip02)" style="fill:#000000; stroke:none; fill-opacity:1" cx="136.146" cy="158.842" r="4"/>
<circle clip-path="url(#clip02)" style="fill:#3da44d; stroke:none; fill-opacity:1" cx="136.146" cy="158.842" r="3"/>
<circle clip-path="url(#clip02)" style="fill:#000000; stroke:none; fill-opacity:1" cx="184.647" cy="35.7766" r="4"/>
<circle clip-path="url(#clip02)" style="fill:#3da44d; stroke:none; fill-opacity:1" cx="184.647" cy="35.7766" r="3"/>
<circle clip-path="url(#clip02)" style="fill:#000000; stroke:none; fill-opacity:1" cx="225.49" cy="80.2337" r="4"/>
<circle clip-path="url(#clip02)" style="fill:#3da44d; stroke:none; fill-opacity:1" cx="225.49" cy="80.2337" r="3"/>
<circle clip-path="url(#clip02)" style="fill:#000000; stroke:none; fill-opacity:1" cx="273.992" cy="60.3051" r="4"/>
<circle clip-path="url(#clip02)" style="fill:#3da44d; stroke:none; fill-opacity:1" cx="273.992" cy="60.3051" r="3"/>
<circle clip-path="url(#clip02)" style="fill:#000000; stroke:none; fill-opacity:1" cx="317.387" cy="271.225" r="4"/>
<circle clip-path="url(#clip02)" style="fill:#3da44d; stroke:none; fill-opacity:1" cx="317.387" cy="271.225" r="3"/>
<circle clip-path="url(#clip02)" style="fill:#000000; stroke:none; fill-opacity:1" cx="335.256" cy="280.484" r="4"/>
<circle clip-path="url(#clip02)" style="fill:#3da44d; stroke:none; fill-opacity:1" cx="335.256" cy="280.484" r="3"/>
<circle clip-path="url(#clip02)" style="fill:#000000; stroke:none; fill-opacity:1" cx="370.994" cy="141.111" r="4"/>
<circle clip-path="url(#clip02)" style="fill:#3da44d; stroke:none; fill-opacity:1" cx="370.994" cy="141.111" r="3"/>
<circle clip-path="url(#clip02)" style="fill:#000000; stroke:none; fill-opacity:1" cx="388.863" cy="151.186" r="4"/>
<circle clip-path="url(#clip02)" style="fill:#3da44d; stroke:none; fill-opacity:1" cx="388.863" cy="151.186" r="3"/>
<circle clip-path="url(#clip02)" style="fill:#000000; stroke:none; fill-opacity:1" cx="424.601" cy="339.799" r="4"/>
<circle clip-path="url(#clip02)" style="fill:#3da44d; stroke:none; fill-opacity:1" cx="424.601" cy="339.799" r="3"/>
<circle clip-path="url(#clip02)" style="fill:#000000; stroke:none; fill-opacity:1" cx="442.469" cy="363.005" r="4"/>
<circle clip-path="url(#clip02)" style="fill:#3da44d; stroke:none; fill-opacity:1" cx="442.469" cy="363.005" r="3"/>
<circle clip-path="url(#clip02)" style="fill:#000000; stroke:none; fill-opacity:1" cx="485.865" cy="212.05" r="4"/>
<circle clip-path="url(#clip02)" style="fill:#3da44d; stroke:none; fill-opacity:1" cx="485.865" cy="212.05" r="3"/>
<circle clip-path="url(#clip02)" style="fill:#000000; stroke:none; fill-opacity:1" cx="531.814" cy="213.676" r="4"/>
<circle clip-path="url(#clip02)" style="fill:#3da44d; stroke:none; fill-opacity:1" cx="531.814" cy="213.676" r="3"/>
<circle clip-path="url(#clip02)" style="fill:#000000; stroke:none; fill-opacity:1" cx="564.999" cy="134.616" r="4"/>
<circle clip-path="url(#clip02)" style="fill:#3da44d; stroke:none; fill-opacity:1" cx="564.999" cy="134.616" r="3"/>
<polygon clip-path="url(#clip00)" points="
325.13,93.171 562.315,93.171 562.315,32.691 325.13,32.691 
  " fill="#ffffff" fill-opacity="1"/>
<polyline clip-path="url(#clip00)" style="stroke:#000000; stroke-width:1; stroke-opacity:1; fill:none" points="
  325.13,93.171 562.315,93.171 562.315,32.691 325.13,32.691 325.13,93.171 
  "/>
<polyline clip-path="url(#clip00)" style="stroke:#000000; stroke-width:2; stroke-opacity:1; fill:none" points="
  331.13,47.811 367.13,47.811 
  "/>
<g clip-path="url(#clip00)">
<text style="fill:#000000; fill-opacity:1; font-family:Arial,Helvetica Neue,Helvetica,sans-serif; font-size:12; text-anchor:start;" transform="rotate(0, 373.13, 52.311)" x="373.13" y="52.311">sin(.) + 0.5sin(3.5x) + 0.5sin(5.1x)</text>
</g>
<polyline clip-path="url(#clip00)" style="stroke:#e26f46; stroke-width:2; stroke-opacity:1; fill:none" points="
  331.13,62.931 367.13,62.931 
  "/>
<circle clip-path="url(#clip00)" style="fill:#000000; stroke:none; fill-opacity:1" cx="352.13" cy="62.931" r="6"/>
<circle clip-path="url(#clip00)" style="fill:#e26f46; stroke:none; fill-opacity:1" cx="352.13" cy="62.931" r="5"/>
<g clip-path="url(#clip00)">
<text style="fill:#000000; fill-opacity:1; font-family:Arial,Helvetica Neue,Helvetica,sans-serif; font-size:12; text-anchor:start;" transform="rotate(0, 373.13, 67.431)" x="373.13" y="67.431">l2-norm=0.351, zeta=0.1</text>
</g>
<polyline clip-path="url(#clip00)" style="stroke:#3da44d; stroke-width:2; stroke-opacity:1; fill:none" points="
  331.13,78.051 367.13,78.051 
  "/>
<circle clip-path="url(#clip00)" style="fill:#000000; stroke:none; fill-opacity:1" cx="352.13" cy="78.051" r="6"/>
<circle clip-path="url(#clip00)" style="fill:#3da44d; stroke:none; fill-opacity:1" cx="352.13" cy="78.051" r="5"/>
<g clip-path="url(#clip00)">
<text style="fill:#000000; fill-opacity:1; font-family:Arial,Helvetica Neue,Helvetica,sans-serif; font-size:12; text-anchor:start;" transform="rotate(0, 373.13, 82.551)" x="373.13" y="82.551">l2-norm=0.006, zeta=0.002</text>
</g>
</svg>
