<?xml version="1.0" encoding="utf-8" standalone="no"?>
<!DOCTYPE svg PUBLIC "-//W3C//DTD SVG 1.1//EN"
  "http://www.w3.org/Graphics/SVG/1.1/DTD/svg11.dtd">
<!-- Created with matplotlib (http://matplotlib.org/) -->
<svg height="288pt" version="1.1" viewBox="0 0 432 288" width="432pt" xmlns="http://www.w3.org/2000/svg" xmlns:xlink="http://www.w3.org/1999/xlink">
 <defs>
  <style type="text/css">
*{stroke-linecap:butt;stroke-linejoin:round;}
  </style>
 </defs>
 <g id="figure_1">
  <g id="patch_1">
   <path d="M 0 288 
L 432 288 
L 432 0 
L 0 0 
z
" style="fill:#ffffff;"/>
  </g>
  <g id="axes_1">
   <g id="patch_2">
    <path d="M 25.314646 273.485354 
L 429.165354 273.485354 
L 429.165354 2.834646 
L 25.314646 2.834646 
z
" style="fill:#ffffff;"/>
   </g>
   <g id="matplotlib.axis_1">
    <g id="xtick_1">
     <g id="line2d_1">
      <path clip-path="url(#p8829951b4f)" d="M 35.789517 273.485354 
L 35.789517 2.834646 
" style="fill:none;opacity:0.1;stroke:#000000;stroke-linecap:square;stroke-width:0.5;"/>
     </g>
     <g id="line2d_2">
      <defs>
       <path d="M 0 0 
L 0 3.5 
" id="maa3265c716" style="stroke:#000000;stroke-width:0.8;"/>
      </defs>
      <g>
       <use style="stroke:#000000;stroke-width:0.8;" x="35.789517" xlink:href="#maa3265c716" y="273.485354"/>
      </g>
     </g>
     <g id="text_1">
      <!-- 0 -->
      <defs>
       <path d="M 31.78125 66.40625 
Q 24.171875 66.40625 20.328125 58.90625 
Q 16.5 51.421875 16.5 36.375 
Q 16.5 21.390625 20.328125 13.890625 
Q 24.171875 6.390625 31.78125 6.390625 
Q 39.453125 6.390625 43.28125 13.890625 
Q 47.125 21.390625 47.125 36.375 
Q 47.125 51.421875 43.28125 58.90625 
Q 39.453125 66.40625 31.78125 66.40625 
z
M 31.78125 74.21875 
Q 44.046875 74.21875 50.515625 64.515625 
Q 56.984375 54.828125 56.984375 36.375 
Q 56.984375 17.96875 50.515625 8.265625 
Q 44.046875 -1.421875 31.78125 -1.421875 
Q 19.53125 -1.421875 13.0625 8.265625 
Q 6.59375 17.96875 6.59375 36.375 
Q 6.59375 54.828125 13.0625 64.515625 
Q 19.53125 74.21875 31.78125 74.21875 
z
" id="DejaVuSans-30"/>
      </defs>
      <g transform="translate(33.244517 286.564104)scale(0.08 -0.08)">
       <use xlink:href="#DejaVuSans-30"/>
      </g>
     </g>
    </g>
    <g id="xtick_2">
     <g id="line2d_3">
      <path clip-path="url(#p8829951b4f)" d="M 131.276042 273.485354 
L 131.276042 2.834646 
" style="fill:none;opacity:0.1;stroke:#000000;stroke-linecap:square;stroke-width:0.5;"/>
     </g>
     <g id="line2d_4">
      <g>
       <use style="stroke:#000000;stroke-width:0.8;" x="131.276042" xlink:href="#maa3265c716" y="273.485354"/>
      </g>
     </g>
     <g id="text_2">
      <!-- 100 -->
      <defs>
       <path d="M 12.40625 8.296875 
L 28.515625 8.296875 
L 28.515625 63.921875 
L 10.984375 60.40625 
L 10.984375 69.390625 
L 28.421875 72.90625 
L 38.28125 72.90625 
L 38.28125 8.296875 
L 54.390625 8.296875 
L 54.390625 0 
L 12.40625 0 
z
" id="DejaVuSans-31"/>
      </defs>
      <g transform="translate(123.641042 286.564104)scale(0.08 -0.08)">
       <use xlink:href="#DejaVuSans-31"/>
       <use x="63.623047" xlink:href="#DejaVuSans-30"/>
       <use x="127.246094" xlink:href="#DejaVuSans-30"/>
      </g>
     </g>
    </g>
    <g id="xtick_3">
     <g id="line2d_5">
      <path clip-path="url(#p8829951b4f)" d="M 226.762567 273.485354 
L 226.762567 2.834646 
" style="fill:none;opacity:0.1;stroke:#000000;stroke-linecap:square;stroke-width:0.5;"/>
     </g>
     <g id="line2d_6">
      <g>
       <use style="stroke:#000000;stroke-width:0.8;" x="226.762567" xlink:href="#maa3265c716" y="273.485354"/>
      </g>
     </g>
     <g id="text_3">
      <!-- 200 -->
      <defs>
       <path d="M 19.1875 8.296875 
L 53.609375 8.296875 
L 53.609375 0 
L 7.328125 0 
L 7.328125 8.296875 
Q 12.9375 14.109375 22.625 23.890625 
Q 32.328125 33.6875 34.8125 36.53125 
Q 39.546875 41.84375 41.421875 45.53125 
Q 43.3125 49.21875 43.3125 52.78125 
Q 43.3125 58.59375 39.234375 62.25 
Q 35.15625 65.921875 28.609375 65.921875 
Q 23.96875 65.921875 18.8125 64.3125 
Q 13.671875 62.703125 7.8125 59.421875 
L 7.8125 69.390625 
Q 13.765625 71.78125 18.9375 73 
Q 24.125 74.21875 28.421875 74.21875 
Q 39.75 74.21875 46.484375 68.546875 
Q 53.21875 62.890625 53.21875 53.421875 
Q 53.21875 48.921875 51.53125 44.890625 
Q 49.859375 40.875 45.40625 35.40625 
Q 44.1875 33.984375 37.640625 27.21875 
Q 31.109375 20.453125 19.1875 8.296875 
z
" id="DejaVuSans-32"/>
      </defs>
      <g transform="translate(219.127567 286.564104)scale(0.08 -0.08)">
       <use xlink:href="#DejaVuSans-32"/>
       <use x="63.623047" xlink:href="#DejaVuSans-30"/>
       <use x="127.246094" xlink:href="#DejaVuSans-30"/>
      </g>
     </g>
    </g>
    <g id="xtick_4">
     <g id="line2d_7">
      <path clip-path="url(#p8829951b4f)" d="M 322.249092 273.485354 
L 322.249092 2.834646 
" style="fill:none;opacity:0.1;stroke:#000000;stroke-linecap:square;stroke-width:0.5;"/>
     </g>
     <g id="line2d_8">
      <g>
       <use style="stroke:#000000;stroke-width:0.8;" x="322.249092" xlink:href="#maa3265c716" y="273.485354"/>
      </g>
     </g>
     <g id="text_4">
      <!-- 300 -->
      <defs>
       <path d="M 40.578125 39.3125 
Q 47.65625 37.796875 51.625 33 
Q 55.609375 28.21875 55.609375 21.1875 
Q 55.609375 10.40625 48.1875 4.484375 
Q 40.765625 -1.421875 27.09375 -1.421875 
Q 22.515625 -1.421875 17.65625 -0.515625 
Q 12.796875 0.390625 7.625 2.203125 
L 7.625 11.71875 
Q 11.71875 9.328125 16.59375 8.109375 
Q 21.484375 6.890625 26.8125 6.890625 
Q 36.078125 6.890625 40.9375 10.546875 
Q 45.796875 14.203125 45.796875 21.1875 
Q 45.796875 27.640625 41.28125 31.265625 
Q 36.765625 34.90625 28.71875 34.90625 
L 20.21875 34.90625 
L 20.21875 43.015625 
L 29.109375 43.015625 
Q 36.375 43.015625 40.234375 45.921875 
Q 44.09375 48.828125 44.09375 54.296875 
Q 44.09375 59.90625 40.109375 62.90625 
Q 36.140625 65.921875 28.71875 65.921875 
Q 24.65625 65.921875 20.015625 65.03125 
Q 15.375 64.15625 9.8125 62.3125 
L 9.8125 71.09375 
Q 15.4375 72.65625 20.34375 73.4375 
Q 25.25 74.21875 29.59375 74.21875 
Q 40.828125 74.21875 47.359375 69.109375 
Q 53.90625 64.015625 53.90625 55.328125 
Q 53.90625 49.265625 50.4375 45.09375 
Q 46.96875 40.921875 40.578125 39.3125 
z
" id="DejaVuSans-33"/>
      </defs>
      <g transform="translate(314.614092 286.564104)scale(0.08 -0.08)">
       <use xlink:href="#DejaVuSans-33"/>
       <use x="63.623047" xlink:href="#DejaVuSans-30"/>
       <use x="127.246094" xlink:href="#DejaVuSans-30"/>
      </g>
     </g>
    </g>
    <g id="xtick_5">
     <g id="line2d_9">
      <path clip-path="url(#p8829951b4f)" d="M 417.735617 273.485354 
L 417.735617 2.834646 
" style="fill:none;opacity:0.1;stroke:#000000;stroke-linecap:square;stroke-width:0.5;"/>
     </g>
     <g id="line2d_10">
      <g>
       <use style="stroke:#000000;stroke-width:0.8;" x="417.735617" xlink:href="#maa3265c716" y="273.485354"/>
      </g>
     </g>
     <g id="text_5">
      <!-- 400 -->
      <defs>
       <path d="M 37.796875 64.3125 
L 12.890625 25.390625 
L 37.796875 25.390625 
z
M 35.203125 72.90625 
L 47.609375 72.90625 
L 47.609375 25.390625 
L 58.015625 25.390625 
L 58.015625 17.1875 
L 47.609375 17.1875 
L 47.609375 0 
L 37.796875 0 
L 37.796875 17.1875 
L 4.890625 17.1875 
L 4.890625 26.703125 
z
" id="DejaVuSans-34"/>
      </defs>
      <g transform="translate(410.100617 286.564104)scale(0.08 -0.08)">
       <use xlink:href="#DejaVuSans-34"/>
       <use x="63.623047" xlink:href="#DejaVuSans-30"/>
       <use x="127.246094" xlink:href="#DejaVuSans-30"/>
      </g>
     </g>
    </g>
   </g>
   <g id="matplotlib.axis_2">
    <g id="ytick_1">
     <g id="line2d_11">
      <path clip-path="url(#p8829951b4f)" d="M 25.314646 239.107688 
L 429.165354 239.107688 
" style="fill:none;opacity:0.1;stroke:#000000;stroke-linecap:square;stroke-width:0.5;"/>
     </g>
     <g id="line2d_12">
      <defs>
       <path d="M 0 0 
L -3.5 0 
" id="m8312f5a6e8" style="stroke:#000000;stroke-width:0.8;"/>
      </defs>
      <g>
       <use style="stroke:#000000;stroke-width:0.8;" x="25.314646" xlink:href="#m8312f5a6e8" y="239.107688"/>
      </g>
     </g>
     <g id="text_6">
      <!-- 7.15 -->
      <defs>
       <path d="M 8.203125 72.90625 
L 55.078125 72.90625 
L 55.078125 68.703125 
L 28.609375 0 
L 18.3125 0 
L 43.21875 64.59375 
L 8.203125 64.59375 
z
" id="DejaVuSans-37"/>
       <path d="M 10.6875 12.40625 
L 21 12.40625 
L 21 0 
L 10.6875 0 
z
" id="DejaVuSans-2e"/>
       <path d="M 10.796875 72.90625 
L 49.515625 72.90625 
L 49.515625 64.59375 
L 19.828125 64.59375 
L 19.828125 46.734375 
Q 21.96875 47.46875 24.109375 47.828125 
Q 26.265625 48.1875 28.421875 48.1875 
Q 40.625 48.1875 47.75 41.5 
Q 54.890625 34.8125 54.890625 23.390625 
Q 54.890625 11.625 47.5625 5.09375 
Q 40.234375 -1.421875 26.90625 -1.421875 
Q 22.3125 -1.421875 17.546875 -0.640625 
Q 12.796875 0.140625 7.71875 1.703125 
L 7.71875 11.625 
Q 12.109375 9.234375 16.796875 8.0625 
Q 21.484375 6.890625 26.703125 6.890625 
Q 35.15625 6.890625 40.078125 11.328125 
Q 45.015625 15.765625 45.015625 23.390625 
Q 45.015625 31 40.078125 35.4375 
Q 35.15625 39.890625 26.703125 39.890625 
Q 22.75 39.890625 18.8125 39.015625 
Q 14.890625 38.140625 10.796875 36.28125 
z
" id="DejaVuSans-35"/>
      </defs>
      <g transform="translate(0.502146 242.147063)scale(0.08 -0.08)">
       <use xlink:href="#DejaVuSans-37"/>
       <use x="63.623047" xlink:href="#DejaVuSans-2e"/>
       <use x="95.410156" xlink:href="#DejaVuSans-31"/>
       <use x="159.033203" xlink:href="#DejaVuSans-35"/>
      </g>
     </g>
    </g>
    <g id="ytick_2">
     <g id="line2d_13">
      <path clip-path="url(#p8829951b4f)" d="M 25.314646 176.09415 
L 429.165354 176.09415 
" style="fill:none;opacity:0.1;stroke:#000000;stroke-linecap:square;stroke-width:0.5;"/>
     </g>
     <g id="line2d_14">
      <g>
       <use style="stroke:#000000;stroke-width:0.8;" x="25.314646" xlink:href="#m8312f5a6e8" y="176.09415"/>
      </g>
     </g>
     <g id="text_7">
      <!-- 7.20 -->
      <g transform="translate(0.502146 179.133525)scale(0.08 -0.08)">
       <use xlink:href="#DejaVuSans-37"/>
       <use x="63.623047" xlink:href="#DejaVuSans-2e"/>
       <use x="95.410156" xlink:href="#DejaVuSans-32"/>
       <use x="159.033203" xlink:href="#DejaVuSans-30"/>
      </g>
     </g>
    </g>
    <g id="ytick_3">
     <g id="line2d_15">
      <path clip-path="url(#p8829951b4f)" d="M 25.314646 113.080612 
L 429.165354 113.080612 
" style="fill:none;opacity:0.1;stroke:#000000;stroke-linecap:square;stroke-width:0.5;"/>
     </g>
     <g id="line2d_16">
      <g>
       <use style="stroke:#000000;stroke-width:0.8;" x="25.314646" xlink:href="#m8312f5a6e8" y="113.080612"/>
      </g>
     </g>
     <g id="text_8">
      <!-- 7.25 -->
      <g transform="translate(0.502146 116.119987)scale(0.08 -0.08)">
       <use xlink:href="#DejaVuSans-37"/>
       <use x="63.623047" xlink:href="#DejaVuSans-2e"/>
       <use x="95.410156" xlink:href="#DejaVuSans-32"/>
       <use x="159.033203" xlink:href="#DejaVuSans-35"/>
      </g>
     </g>
    </g>
    <g id="ytick_4">
     <g id="line2d_17">
      <path clip-path="url(#p8829951b4f)" d="M 25.314646 50.067073 
L 429.165354 50.067073 
" style="fill:none;opacity:0.1;stroke:#000000;stroke-linecap:square;stroke-width:0.5;"/>
     </g>
     <g id="line2d_18">
      <g>
       <use style="stroke:#000000;stroke-width:0.8;" x="25.314646" xlink:href="#m8312f5a6e8" y="50.067073"/>
      </g>
     </g>
     <g id="text_9">
      <!-- 7.30 -->
      <g transform="translate(0.502146 53.106448)scale(0.08 -0.08)">
       <use xlink:href="#DejaVuSans-37"/>
       <use x="63.623047" xlink:href="#DejaVuSans-2e"/>
       <use x="95.410156" xlink:href="#DejaVuSans-33"/>
       <use x="159.033203" xlink:href="#DejaVuSans-30"/>
      </g>
     </g>
    </g>
   </g>
   <g id="line2d_19">
    <path clip-path="url(#p8829951b4f)" d="M 36.744383 230.537847 
L 37.699248 203.946134 
L 38.654113 213.020084 
L 39.608978 227.009089 
L 40.563844 219.825546 
L 41.518709 193.485887 
L 42.473574 196.510536 
L 43.428439 187.940695 
L 44.383305 171.809229 
L 45.33817 167.776363 
L 46.293035 158.198305 
L 47.2479 166.390065 
L 48.202766 186.42837 
L 49.157631 191.847535 
L 50.112496 195.50232 
L 51.067361 223.984439 
L 52.022227 207.726946 
L 52.977092 179.244827 
L 53.931957 157.946251 
L 54.886822 159.836657 
L 55.841688 156.812007 
L 56.796553 154.291466 
L 57.751418 165.381849 
L 59.661149 180.127017 
L 60.616014 161.85309 
L 61.570879 183.151666 
L 62.525744 168.658553 
L 63.48061 183.025639 
L 64.435475 170.92704 
L 65.39034 175.337988 
L 66.345205 160.970901 
L 67.300071 153.157222 
L 68.254936 149.880518 
L 69.209801 177.606475 
L 70.164666 176.09415 
L 71.119532 181.891396 
L 72.074397 171.557175 
L 73.029262 176.598258 
L 73.984127 184.663991 
L 75.893858 229.025522 
L 76.848723 209.113244 
L 77.803588 231.924145 
L 78.758454 212.011867 
L 79.713319 219.321437 
L 80.668184 218.817329 
L 81.623049 214.154327 
L 82.577915 187.184533 
L 83.53278 180.757152 
L 84.487645 197.014645 
L 85.44251 195.754374 
L 86.397376 211.00365 
L 87.352241 219.951573 
L 88.307106 219.573491 
L 89.261971 212.642002 
L 90.216837 184.663991 
L 91.171702 175.590042 
L 92.126567 172.943473 
L 93.081432 167.146228 
L 94.036298 179.496881 
L 94.991163 182.14345 
L 95.946028 198.52697 
L 96.900893 199.031078 
L 97.855759 183.781802 
L 99.765489 145.217516 
L 100.720354 137.655892 
L 101.67522 128.329888 
L 102.630085 131.102484 
L 103.58495 124.044967 
L 104.539815 125.431265 
L 105.494681 117.365532 
L 106.449546 121.146345 
L 107.404411 126.187428 
L 108.359276 122.028534 
L 109.314142 111.694314 
L 110.269007 103.502554 
L 111.223872 113.458693 
L 112.178737 141.18465 
L 113.133603 139.168217 
L 114.088468 155.929818 
L 115.043333 159.71063 
L 115.998198 168.280471 
L 116.953064 154.291466 
L 117.907929 151.896951 
L 118.862794 174.581825 
L 119.817659 186.176316 
L 120.772525 186.806452 
L 121.72739 192.47767 
L 122.682255 208.609136 
L 123.63712 200.543403 
L 124.591986 213.524192 
L 125.546851 215.918706 
L 126.501716 231.924145 
L 127.456581 211.88584 
L 128.411447 215.540625 
L 129.366312 187.184533 
L 130.321177 184.28591 
L 131.276042 171.683202 
L 132.230908 182.269477 
L 133.185773 191.091372 
L 134.140638 178.740719 
L 135.095503 156.68598 
L 136.050369 153.66133 
L 137.005234 136.899729 
L 137.960099 155.047628 
L 138.914964 167.776363 
L 139.86983 190.713291 
L 140.824695 194.116022 
L 141.77956 184.033856 
L 142.734425 195.376293 
L 143.689291 159.458576 
L 145.599021 171.683202 
L 146.553886 168.406498 
L 147.508752 164.625686 
L 149.418482 178.992773 
L 150.373347 196.510536 
L 151.328213 196.006428 
L 152.283078 179.874962 
L 153.237943 179.748935 
L 154.192808 206.466676 
L 155.147674 203.568053 
L 156.102539 232.932362 
L 157.057404 235.830984 
L 158.012269 230.033739 
L 158.967135 231.167983 
L 159.922 244.778907 
L 160.876865 230.663874 
L 161.83173 230.537847 
L 162.786596 209.239271 
L 163.741461 212.389948 
L 164.696326 189.326993 
L 165.651191 196.762591 
L 166.606057 179.244827 
L 167.560922 180.127017 
L 168.515787 201.173538 
L 169.470652 227.891279 
L 170.425518 229.907712 
L 171.380383 265.825429 
L 173.290113 251.836423 
L 174.244979 223.984439 
L 175.199844 229.781685 
L 176.154709 212.137894 
L 177.109574 219.951573 
L 178.06444 231.420037 
L 179.019305 216.926923 
L 179.97417 173.321554 
L 180.929035 154.165439 
L 181.883901 162.357199 
L 182.838766 168.280471 
L 186.658227 141.18465 
L 187.613092 152.022978 
L 189.522823 137.151783 
L 190.477688 123.91894 
L 191.432553 125.431265 
L 192.387418 102.36831 
L 193.342284 110.812124 
L 194.297149 98.08339 
L 195.252014 100.729958 
L 196.206879 101.612148 
L 197.161745 116.231289 
L 198.11661 105.014879 
L 199.071475 105.518987 
L 200.02634 113.332666 
L 200.981206 130.346321 
L 201.936071 122.406615 
L 202.890936 112.198422 
L 203.845801 90.773819 
L 204.800667 99.469687 
L 205.755532 112.072395 
L 206.710397 116.861424 
L 207.665262 113.080612 
L 208.620128 105.140906 
L 209.574993 106.779258 
L 210.529858 117.491559 
L 211.484723 108.41761 
L 212.439589 103.502554 
L 213.394454 101.612148 
L 214.349319 104.132689 
L 215.304184 90.647792 
L 216.25905 88.253278 
L 217.213915 68.845108 
L 218.16878 69.979352 
L 219.123645 69.475243 
L 220.078511 64.43416 
L 221.033376 63.677998 
L 221.988241 59.519104 
L 222.943106 71.617704 
L 223.897972 120.894291 
L 224.852837 118.499776 
L 225.807702 117.239505 
L 226.762567 83.590276 
L 227.717433 69.60127 
L 228.672298 86.110817 
L 229.627163 91.656009 
L 230.582028 76.406732 
L 231.536894 63.047862 
L 232.491759 71.617704 
L 233.446624 70.987568 
L 234.401489 79.935491 
L 235.356355 83.716303 
L 236.31122 119.003884 
L 237.266085 111.316233 
L 239.175816 121.650453 
L 240.130681 156.68598 
L 241.085546 125.305238 
L 242.040411 112.072395 
L 242.995277 112.198422 
L 243.950142 98.08339 
L 244.905007 98.587498 
L 245.859872 98.713525 
L 246.814738 83.338222 
L 247.769603 109.803908 
L 248.724468 105.266933 
L 249.679333 131.984673 
L 250.634199 129.464132 
L 251.589064 118.499776 
L 252.543929 131.480565 
L 253.498794 130.976457 
L 254.45366 169.792796 
L 255.408525 164.121578 
L 256.36339 156.307899 
L 257.318255 162.987334 
L 258.273121 181.765369 
L 259.227986 168.028417 
L 260.182851 151.014762 
L 261.137716 139.168217 
L 262.092582 136.899729 
L 263.047447 112.072395 
L 264.002312 128.203861 
L 264.957177 160.970901 
L 265.912043 150.636681 
L 266.866908 118.877857 
L 267.821773 124.80113 
L 268.776638 135.13535 
L 269.731504 157.694197 
L 270.686369 127.447698 
L 271.641234 68.845108 
L 272.596099 63.677998 
L 273.550965 70.357433 
L 274.50583 38.598609 
L 275.460695 32.927391 
L 276.41556 10.620598 
L 277.370426 10.494571 
L 278.325291 13.519221 
L 279.280156 26.878091 
L 280.235021 26.247956 
L 281.189887 43.639693 
L 282.144752 34.565743 
L 283.099617 28.390416 
L 284.054482 37.842447 
L 285.009348 44.017774 
L 286.919078 19.694548 
L 287.873943 29.650687 
L 288.828809 32.927391 
L 289.783674 61.283483 
L 290.738539 84.346438 
L 291.693404 160.088711 
L 292.64827 119.003884 
L 293.603135 83.464249 
L 294.558 95.814902 
L 295.512865 89.639576 
L 296.467731 93.798469 
L 297.422596 52.461588 
L 298.377461 66.57662 
L 299.332326 63.173889 
L 300.287192 74.012218 
L 301.242057 60.401294 
L 302.196922 79.305355 
L 303.151787 106.779258 
L 304.106653 111.820341 
L 305.061518 91.277927 
L 306.016383 98.839552 
L 306.971248 109.425827 
L 307.926114 135.765486 
L 308.880979 113.332666 
L 309.835844 101.612148 
L 310.790709 74.138245 
L 311.745575 62.2917 
L 312.70044 78.045084 
L 313.655305 87.245061 
L 314.61017 114.088828 
L 315.565036 119.760047 
L 316.519901 144.083273 
L 317.474766 121.272372 
L 318.429631 137.151783 
L 319.384497 140.30246 
L 320.339362 100.351877 
L 321.294227 101.990229 
L 323.203958 52.713642 
L 325.113688 69.349216 
L 326.068553 57.754725 
L 327.023419 66.072512 
L 327.978284 70.105379 
L 328.933149 79.557409 
L 329.888014 59.393077 
L 330.84288 58.384861 
L 331.797745 51.453371 
L 332.75261 63.677998 
L 333.707475 45.278045 
L 334.662341 53.721859 
L 335.617206 51.07529 
L 336.572071 74.264272 
L 337.526936 83.590276 
L 338.481802 71.491676 
L 339.436667 75.65057 
L 340.391532 71.995785 
L 341.346397 82.708086 
L 342.301263 72.121812 
L 343.256128 59.26705 
L 344.210993 79.431382 
L 345.165858 70.357433 
L 346.120724 51.201317 
L 347.075589 54.09994 
L 348.030454 49.562965 
L 348.985319 39.354772 
L 349.940185 36.960257 
L 350.89505 24.987685 
L 351.849915 24.609604 
L 352.80478 38.724637 
L 353.759646 48.680776 
L 354.714511 37.086285 
L 356.624241 63.804025 
L 357.579107 54.982129 
L 358.533972 74.012218 
L 359.488837 76.406732 
L 360.443702 102.620364 
L 361.398568 92.916279 
L 362.353433 86.488899 
L 363.308298 85.98479 
L 364.263163 73.886191 
L 365.218029 64.938268 
L 366.172894 50.949263 
L 367.127759 47.924613 
L 368.082624 56.368427 
L 369.03749 67.206756 
L 369.992355 57.250617 
L 370.94722 40.489016 
L 371.902085 46.538315 
L 372.856951 50.445155 
L 373.811816 36.708203 
L 374.766681 40.362989 
L 375.721546 33.809581 
L 376.676412 34.943824 
L 377.631277 28.390416 
L 378.586142 26.50001 
L 379.541007 28.012335 
L 380.495873 21.584954 
L 381.450738 25.113712 
L 382.405603 31.289039 
L 383.360468 18.686331 
L 384.315334 16.039763 
L 386.225064 39.984907 
L 387.179929 31.289039 
L 388.134795 38.094501 
L 389.08966 42.505449 
L 390.044525 48.680776 
L 390.99939 46.160234 
L 391.954256 49.562965 
L 392.909121 62.417727 
L 393.863986 80.943707 
L 394.818851 67.584837 
L 395.773717 75.020435 
L 396.728582 76.910841 
L 397.683447 77.288922 
L 398.638312 85.732736 
L 399.593178 96.066956 
L 400.548043 96.697092 
L 401.502908 68.971135 
L 402.457773 87.875196 
L 403.412639 88.127251 
L 404.367504 96.697092 
L 405.322369 89.89163 
L 406.277234 88.127251 
L 407.2321 112.324449 
L 408.186965 118.499776 
L 409.14183 132.1107 
L 410.096695 152.653114 
L 411.051561 185.1681 
L 412.006426 143.831218 
L 412.961291 143.453137 
L 413.916156 166.264038 
L 414.871022 173.573609 
L 415.825887 130.472348 
L 416.780752 123.162778 
L 417.735617 124.170994 
L 417.735617 124.170994 
" style="fill:none;stroke:#000000;stroke-linecap:round;"/>
   </g>
   <g id="line2d_20">
    <path clip-path="url(#p8829951b4f)" d="M 36.744383 201.082517 
L 110.269007 156.493279 
L 175.199844 226.027278 
L 190.477688 118.79327 
L 389.08966 46.758502 
L 417.735617 156.291526 
" style="fill:none;stroke:#e36f47;stroke-linecap:round;stroke-width:2;"/>
   </g>
   <g id="PathCollection_1">
    <defs>
     <path d="M 0 2 
C 0.530406 2 1.03916 1.789267 1.414214 1.414214 
C 1.789267 1.03916 2 0.530406 2 0 
C 2 -0.530406 1.789267 -1.03916 1.414214 -1.414214 
C 1.03916 -1.789267 0.530406 -2 0 -2 
C -0.530406 -2 -1.03916 -1.789267 -1.414214 -1.414214 
C -1.789267 -1.03916 -2 -0.530406 -2 0 
C -2 0.530406 -1.789267 1.03916 -1.414214 1.414214 
C -1.03916 1.789267 -0.530406 2 0 2 
z
" id="m60f05302e7" style="stroke:#000000;"/>
    </defs>
    <g clip-path="url(#p8829951b4f)">
     <use style="fill:#e36f47;stroke:#000000;" x="36.744383" xlink:href="#m60f05302e7" y="201.082517"/>
     <use style="fill:#e36f47;stroke:#000000;" x="110.269007" xlink:href="#m60f05302e7" y="156.493279"/>
     <use style="fill:#e36f47;stroke:#000000;" x="175.199844" xlink:href="#m60f05302e7" y="226.027278"/>
     <use style="fill:#e36f47;stroke:#000000;" x="190.477688" xlink:href="#m60f05302e7" y="118.79327"/>
     <use style="fill:#e36f47;stroke:#000000;" x="389.08966" xlink:href="#m60f05302e7" y="46.758502"/>
     <use style="fill:#e36f47;stroke:#000000;" x="417.735617" xlink:href="#m60f05302e7" y="156.291526"/>
    </g>
   </g>
   <g id="patch_3">
    <path d="M 25.314646 273.485354 
L 25.314646 2.834646 
" style="fill:none;stroke:#000000;stroke-linecap:square;stroke-linejoin:miter;stroke-width:0.8;"/>
   </g>
   <g id="patch_4">
    <path d="M 25.314646 273.485354 
L 429.165354 273.485354 
" style="fill:none;stroke:#000000;stroke-linecap:square;stroke-linejoin:miter;stroke-width:0.8;"/>
   </g>
   <g id="line2d_21">
    <path clip-path="url(#p8829951b4f)" d="M 36.744383 185.080036 
L 96.900893 192.242372 
L 100.720354 132.940364 
L 173.290113 230.581549 
L 192.387418 113.474279 
L 230.582028 82.521707 
L 265.912043 161.990853 
L 276.41556 18.941776 
L 304.106653 102.636108 
L 385.270199 29.848368 
L 417.735617 157.16443 
" style="fill:none;stroke:#3ea44e;stroke-linecap:round;stroke-width:2;"/>
   </g>
   <g id="PathCollection_2">
    <defs>
     <path d="M 0 2 
C 0.530406 2 1.03916 1.789267 1.414214 1.414214 
C 1.789267 1.03916 2 0.530406 2 0 
C 2 -0.530406 1.789267 -1.03916 1.414214 -1.414214 
C 1.03916 -1.789267 0.530406 -2 0 -2 
C -0.530406 -2 -1.03916 -1.789267 -1.414214 -1.414214 
C -1.789267 -1.03916 -2 -0.530406 -2 0 
C -2 0.530406 -1.789267 1.03916 -1.414214 1.414214 
C -1.03916 1.789267 -0.530406 2 0 2 
z
" id="m5e13ea89a6" style="stroke:#000000;"/>
    </defs>
    <g clip-path="url(#p8829951b4f)">
     <use style="fill:#3ea44e;stroke:#000000;" x="36.744383" xlink:href="#m5e13ea89a6" y="185.080036"/>
     <use style="fill:#3ea44e;stroke:#000000;" x="96.900893" xlink:href="#m5e13ea89a6" y="192.242372"/>
     <use style="fill:#3ea44e;stroke:#000000;" x="100.720354" xlink:href="#m5e13ea89a6" y="132.940364"/>
     <use style="fill:#3ea44e;stroke:#000000;" x="173.290113" xlink:href="#m5e13ea89a6" y="230.581549"/>
     <use style="fill:#3ea44e;stroke:#000000;" x="192.387418" xlink:href="#m5e13ea89a6" y="113.474279"/>
     <use style="fill:#3ea44e;stroke:#000000;" x="230.582028" xlink:href="#m5e13ea89a6" y="82.521707"/>
     <use style="fill:#3ea44e;stroke:#000000;" x="265.912043" xlink:href="#m5e13ea89a6" y="161.990853"/>
     <use style="fill:#3ea44e;stroke:#000000;" x="276.41556" xlink:href="#m5e13ea89a6" y="18.941776"/>
     <use style="fill:#3ea44e;stroke:#000000;" x="304.106653" xlink:href="#m5e13ea89a6" y="102.636108"/>
     <use style="fill:#3ea44e;stroke:#000000;" x="385.270199" xlink:href="#m5e13ea89a6" y="29.848368"/>
     <use style="fill:#3ea44e;stroke:#000000;" x="417.735617" xlink:href="#m5e13ea89a6" y="157.16443"/>
    </g>
   </g>
   <g id="legend_1">
    <g id="patch_5">
     <path d="M 30.914646 44.462146 
L 137.564646 44.462146 
Q 139.164646 44.462146 139.164646 42.862146 
L 139.164646 8.434646 
Q 139.164646 6.834646 137.564646 6.834646 
L 30.914646 6.834646 
Q 29.314646 6.834646 29.314646 8.434646 
L 29.314646 42.862146 
Q 29.314646 44.462146 30.914646 44.462146 
z
" style="fill:#ffffff;opacity:0.8;stroke:#000000;stroke-linejoin:miter;"/>
    </g>
    <g id="line2d_22">
     <path d="M 32.514646 13.313396 
L 48.514646 13.313396 
" style="fill:none;stroke:#000000;stroke-linecap:round;"/>
    </g>
    <g id="line2d_23"/>
    <g id="text_10">
     <!-- SNP500 -->
     <defs>
      <path d="M 53.515625 70.515625 
L 53.515625 60.890625 
Q 47.90625 63.578125 42.921875 64.890625 
Q 37.9375 66.21875 33.296875 66.21875 
Q 25.25 66.21875 20.875 63.09375 
Q 16.5 59.96875 16.5 54.203125 
Q 16.5 49.359375 19.40625 46.890625 
Q 22.3125 44.4375 30.421875 42.921875 
L 36.375 41.703125 
Q 47.40625 39.59375 52.65625 34.296875 
Q 57.90625 29 57.90625 20.125 
Q 57.90625 9.515625 50.796875 4.046875 
Q 43.703125 -1.421875 29.984375 -1.421875 
Q 24.8125 -1.421875 18.96875 -0.25 
Q 13.140625 0.921875 6.890625 3.21875 
L 6.890625 13.375 
Q 12.890625 10.015625 18.65625 8.296875 
Q 24.421875 6.59375 29.984375 6.59375 
Q 38.421875 6.59375 43.015625 9.90625 
Q 47.609375 13.234375 47.609375 19.390625 
Q 47.609375 24.75 44.3125 27.78125 
Q 41.015625 30.8125 33.5 32.328125 
L 27.484375 33.5 
Q 16.453125 35.6875 11.515625 40.375 
Q 6.59375 45.0625 6.59375 53.421875 
Q 6.59375 63.09375 13.40625 68.65625 
Q 20.21875 74.21875 32.171875 74.21875 
Q 37.3125 74.21875 42.625 73.28125 
Q 47.953125 72.359375 53.515625 70.515625 
z
" id="DejaVuSans-53"/>
      <path d="M 9.8125 72.90625 
L 23.09375 72.90625 
L 55.421875 11.921875 
L 55.421875 72.90625 
L 64.984375 72.90625 
L 64.984375 0 
L 51.703125 0 
L 19.390625 60.984375 
L 19.390625 0 
L 9.8125 0 
z
" id="DejaVuSans-4e"/>
      <path d="M 19.671875 64.796875 
L 19.671875 37.40625 
L 32.078125 37.40625 
Q 38.96875 37.40625 42.71875 40.96875 
Q 46.484375 44.53125 46.484375 51.125 
Q 46.484375 57.671875 42.71875 61.234375 
Q 38.96875 64.796875 32.078125 64.796875 
z
M 9.8125 72.90625 
L 32.078125 72.90625 
Q 44.34375 72.90625 50.609375 67.359375 
Q 56.890625 61.8125 56.890625 51.125 
Q 56.890625 40.328125 50.609375 34.8125 
Q 44.34375 29.296875 32.078125 29.296875 
L 19.671875 29.296875 
L 19.671875 0 
L 9.8125 0 
z
" id="DejaVuSans-50"/>
     </defs>
     <g transform="translate(54.914646 16.113396)scale(0.08 -0.08)">
      <use xlink:href="#DejaVuSans-53"/>
      <use x="63.476562" xlink:href="#DejaVuSans-4e"/>
      <use x="138.28125" xlink:href="#DejaVuSans-50"/>
      <use x="198.583984" xlink:href="#DejaVuSans-35"/>
      <use x="262.207031" xlink:href="#DejaVuSans-30"/>
      <use x="325.830078" xlink:href="#DejaVuSans-30"/>
     </g>
    </g>
    <g id="line2d_24">
     <path d="M 32.514646 25.055896 
L 48.514646 25.055896 
" style="fill:none;stroke:#e36f47;stroke-linecap:round;stroke-width:2;"/>
    </g>
    <g id="line2d_25"/>
    <g id="text_11">
     <!-- m=5, cost = 0.206 -->
     <defs>
      <path d="M 52 44.1875 
Q 55.375 50.25 60.0625 53.125 
Q 64.75 56 71.09375 56 
Q 79.640625 56 84.28125 50.015625 
Q 88.921875 44.046875 88.921875 33.015625 
L 88.921875 0 
L 79.890625 0 
L 79.890625 32.71875 
Q 79.890625 40.578125 77.09375 44.375 
Q 74.3125 48.1875 68.609375 48.1875 
Q 61.625 48.1875 57.5625 43.546875 
Q 53.515625 38.921875 53.515625 30.90625 
L 53.515625 0 
L 44.484375 0 
L 44.484375 32.71875 
Q 44.484375 40.625 41.703125 44.40625 
Q 38.921875 48.1875 33.109375 48.1875 
Q 26.21875 48.1875 22.15625 43.53125 
Q 18.109375 38.875 18.109375 30.90625 
L 18.109375 0 
L 9.078125 0 
L 9.078125 54.6875 
L 18.109375 54.6875 
L 18.109375 46.1875 
Q 21.1875 51.21875 25.484375 53.609375 
Q 29.78125 56 35.6875 56 
Q 41.65625 56 45.828125 52.96875 
Q 50 49.953125 52 44.1875 
z
" id="DejaVuSans-6d"/>
      <path d="M 10.59375 45.40625 
L 73.1875 45.40625 
L 73.1875 37.203125 
L 10.59375 37.203125 
z
M 10.59375 25.484375 
L 73.1875 25.484375 
L 73.1875 17.1875 
L 10.59375 17.1875 
z
" id="DejaVuSans-3d"/>
      <path d="M 11.71875 12.40625 
L 22.015625 12.40625 
L 22.015625 4 
L 14.015625 -11.625 
L 7.71875 -11.625 
L 11.71875 4 
z
" id="DejaVuSans-2c"/>
      <path id="DejaVuSans-20"/>
      <path d="M 48.78125 52.59375 
L 48.78125 44.1875 
Q 44.96875 46.296875 41.140625 47.34375 
Q 37.3125 48.390625 33.40625 48.390625 
Q 24.65625 48.390625 19.8125 42.84375 
Q 14.984375 37.3125 14.984375 27.296875 
Q 14.984375 17.28125 19.8125 11.734375 
Q 24.65625 6.203125 33.40625 6.203125 
Q 37.3125 6.203125 41.140625 7.25 
Q 44.96875 8.296875 48.78125 10.40625 
L 48.78125 2.09375 
Q 45.015625 0.34375 40.984375 -0.53125 
Q 36.96875 -1.421875 32.421875 -1.421875 
Q 20.0625 -1.421875 12.78125 6.34375 
Q 5.515625 14.109375 5.515625 27.296875 
Q 5.515625 40.671875 12.859375 48.328125 
Q 20.21875 56 33.015625 56 
Q 37.15625 56 41.109375 55.140625 
Q 45.0625 54.296875 48.78125 52.59375 
z
" id="DejaVuSans-63"/>
      <path d="M 30.609375 48.390625 
Q 23.390625 48.390625 19.1875 42.75 
Q 14.984375 37.109375 14.984375 27.296875 
Q 14.984375 17.484375 19.15625 11.84375 
Q 23.34375 6.203125 30.609375 6.203125 
Q 37.796875 6.203125 41.984375 11.859375 
Q 46.1875 17.53125 46.1875 27.296875 
Q 46.1875 37.015625 41.984375 42.703125 
Q 37.796875 48.390625 30.609375 48.390625 
z
M 30.609375 56 
Q 42.328125 56 49.015625 48.375 
Q 55.71875 40.765625 55.71875 27.296875 
Q 55.71875 13.875 49.015625 6.21875 
Q 42.328125 -1.421875 30.609375 -1.421875 
Q 18.84375 -1.421875 12.171875 6.21875 
Q 5.515625 13.875 5.515625 27.296875 
Q 5.515625 40.765625 12.171875 48.375 
Q 18.84375 56 30.609375 56 
z
" id="DejaVuSans-6f"/>
      <path d="M 44.28125 53.078125 
L 44.28125 44.578125 
Q 40.484375 46.53125 36.375 47.5 
Q 32.28125 48.484375 27.875 48.484375 
Q 21.1875 48.484375 17.84375 46.4375 
Q 14.5 44.390625 14.5 40.28125 
Q 14.5 37.15625 16.890625 35.375 
Q 19.28125 33.59375 26.515625 31.984375 
L 29.59375 31.296875 
Q 39.15625 29.25 43.1875 25.515625 
Q 47.21875 21.78125 47.21875 15.09375 
Q 47.21875 7.46875 41.1875 3.015625 
Q 35.15625 -1.421875 24.609375 -1.421875 
Q 20.21875 -1.421875 15.453125 -0.5625 
Q 10.6875 0.296875 5.421875 2 
L 5.421875 11.28125 
Q 10.40625 8.6875 15.234375 7.390625 
Q 20.0625 6.109375 24.8125 6.109375 
Q 31.15625 6.109375 34.5625 8.28125 
Q 37.984375 10.453125 37.984375 14.40625 
Q 37.984375 18.0625 35.515625 20.015625 
Q 33.0625 21.96875 24.703125 23.78125 
L 21.578125 24.515625 
Q 13.234375 26.265625 9.515625 29.90625 
Q 5.8125 33.546875 5.8125 39.890625 
Q 5.8125 47.609375 11.28125 51.796875 
Q 16.75 56 26.8125 56 
Q 31.78125 56 36.171875 55.265625 
Q 40.578125 54.546875 44.28125 53.078125 
z
" id="DejaVuSans-73"/>
      <path d="M 18.3125 70.21875 
L 18.3125 54.6875 
L 36.8125 54.6875 
L 36.8125 47.703125 
L 18.3125 47.703125 
L 18.3125 18.015625 
Q 18.3125 11.328125 20.140625 9.421875 
Q 21.96875 7.515625 27.59375 7.515625 
L 36.8125 7.515625 
L 36.8125 0 
L 27.59375 0 
Q 17.1875 0 13.234375 3.875 
Q 9.28125 7.765625 9.28125 18.015625 
L 9.28125 47.703125 
L 2.6875 47.703125 
L 2.6875 54.6875 
L 9.28125 54.6875 
L 9.28125 70.21875 
z
" id="DejaVuSans-74"/>
      <path d="M 33.015625 40.375 
Q 26.375 40.375 22.484375 35.828125 
Q 18.609375 31.296875 18.609375 23.390625 
Q 18.609375 15.53125 22.484375 10.953125 
Q 26.375 6.390625 33.015625 6.390625 
Q 39.65625 6.390625 43.53125 10.953125 
Q 47.40625 15.53125 47.40625 23.390625 
Q 47.40625 31.296875 43.53125 35.828125 
Q 39.65625 40.375 33.015625 40.375 
z
M 52.59375 71.296875 
L 52.59375 62.3125 
Q 48.875 64.0625 45.09375 64.984375 
Q 41.3125 65.921875 37.59375 65.921875 
Q 27.828125 65.921875 22.671875 59.328125 
Q 17.53125 52.734375 16.796875 39.40625 
Q 19.671875 43.65625 24.015625 45.921875 
Q 28.375 48.1875 33.59375 48.1875 
Q 44.578125 48.1875 50.953125 41.515625 
Q 57.328125 34.859375 57.328125 23.390625 
Q 57.328125 12.15625 50.6875 5.359375 
Q 44.046875 -1.421875 33.015625 -1.421875 
Q 20.359375 -1.421875 13.671875 8.265625 
Q 6.984375 17.96875 6.984375 36.375 
Q 6.984375 53.65625 15.1875 63.9375 
Q 23.390625 74.21875 37.203125 74.21875 
Q 40.921875 74.21875 44.703125 73.484375 
Q 48.484375 72.75 52.59375 71.296875 
z
" id="DejaVuSans-36"/>
     </defs>
     <g transform="translate(54.914646 27.855896)scale(0.08 -0.08)">
      <use xlink:href="#DejaVuSans-6d"/>
      <use x="97.412109" xlink:href="#DejaVuSans-3d"/>
      <use x="181.201172" xlink:href="#DejaVuSans-35"/>
      <use x="244.824219" xlink:href="#DejaVuSans-2c"/>
      <use x="276.611328" xlink:href="#DejaVuSans-20"/>
      <use x="308.398438" xlink:href="#DejaVuSans-63"/>
      <use x="363.378906" xlink:href="#DejaVuSans-6f"/>
      <use x="424.560547" xlink:href="#DejaVuSans-73"/>
      <use x="476.660156" xlink:href="#DejaVuSans-74"/>
      <use x="515.869141" xlink:href="#DejaVuSans-20"/>
      <use x="547.65625" xlink:href="#DejaVuSans-3d"/>
      <use x="631.445312" xlink:href="#DejaVuSans-20"/>
      <use x="663.232422" xlink:href="#DejaVuSans-30"/>
      <use x="726.855469" xlink:href="#DejaVuSans-2e"/>
      <use x="758.642578" xlink:href="#DejaVuSans-32"/>
      <use x="822.265625" xlink:href="#DejaVuSans-30"/>
      <use x="885.888672" xlink:href="#DejaVuSans-36"/>
     </g>
    </g>
    <g id="line2d_26">
     <path d="M 32.514646 36.798396 
L 48.514646 36.798396 
" style="fill:none;stroke:#3ea44e;stroke-linecap:round;stroke-width:2;"/>
    </g>
    <g id="line2d_27"/>
    <g id="text_12">
     <!-- m=10, cost = 0.114 -->
     <g transform="translate(54.914646 39.598396)scale(0.08 -0.08)">
      <use xlink:href="#DejaVuSans-6d"/>
      <use x="97.412109" xlink:href="#DejaVuSans-3d"/>
      <use x="181.201172" xlink:href="#DejaVuSans-31"/>
      <use x="244.824219" xlink:href="#DejaVuSans-30"/>
      <use x="308.447266" xlink:href="#DejaVuSans-2c"/>
      <use x="340.234375" xlink:href="#DejaVuSans-20"/>
      <use x="372.021484" xlink:href="#DejaVuSans-63"/>
      <use x="427.001953" xlink:href="#DejaVuSans-6f"/>
      <use x="488.183594" xlink:href="#DejaVuSans-73"/>
      <use x="540.283203" xlink:href="#DejaVuSans-74"/>
      <use x="579.492188" xlink:href="#DejaVuSans-20"/>
      <use x="611.279297" xlink:href="#DejaVuSans-3d"/>
      <use x="695.068359" xlink:href="#DejaVuSans-20"/>
      <use x="726.855469" xlink:href="#DejaVuSans-30"/>
      <use x="790.478516" xlink:href="#DejaVuSans-2e"/>
      <use x="822.265625" xlink:href="#DejaVuSans-31"/>
      <use x="885.888672" xlink:href="#DejaVuSans-31"/>
      <use x="949.511719" xlink:href="#DejaVuSans-34"/>
     </g>
    </g>
   </g>
  </g>
 </g>
 <defs>
  <clipPath id="p8829951b4f">
   <rect height="270.650709" width="403.850709" x="25.314646" y="2.834646"/>
  </clipPath>
 </defs>
</svg>
