<?xml version="1.0" encoding="utf-8"?>
<svg xmlns="http://www.w3.org/2000/svg" xmlns:xlink="http://www.w3.org/1999/xlink" width="600" height="400" viewBox="0 0 600 400">
<defs>
  <clipPath id="clip00">
    <rect x="0" y="0" width="600" height="400"/>
  </clipPath>
</defs>
<polygon clip-path="url(#clip00)" points="
0,400 600,400 600,0 0,0
  " fill="#ffffff" fill-opacity="1"/>
<defs>
  <clipPath id="clip01">
    <rect x="120" y="0" width="421" height="400"/>
  </clipPath>
</defs>
<polygon clip-path="url(#clip00)" points="
38.8117,375.813 580.315,375.813 580.315,11.811 38.8117,11.811
  " fill="#ffffff" fill-opacity="1"/>
<defs>
  <clipPath id="clip02">
    <rect x="38" y="11" width="543" height="365"/>
  </clipPath>
</defs>
<polyline clip-path="url(#clip02)" style="stroke:#000000; stroke-width:0.5; stroke-opacity:0.1; fill:none" points="
  52.857,370.353 52.857,17.2711
  "/>
<polyline clip-path="url(#clip02)" style="stroke:#000000; stroke-width:0.5; stroke-opacity:0.1; fill:none" points="
  180.89,370.353 180.89,17.2711
  "/>
<polyline clip-path="url(#clip02)" style="stroke:#000000; stroke-width:0.5; stroke-opacity:0.1; fill:none" points="
  308.923,370.353 308.923,17.2711
  "/>
<polyline clip-path="url(#clip02)" style="stroke:#000000; stroke-width:0.5; stroke-opacity:0.1; fill:none" points="
  436.956,370.353 436.956,17.2711
  "/>
<polyline clip-path="url(#clip02)" style="stroke:#000000; stroke-width:0.5; stroke-opacity:0.1; fill:none" points="
  564.989,370.353 564.989,17.2711
  "/>
<polyline clip-path="url(#clip02)" style="stroke:#000000; stroke-width:0.5; stroke-opacity:0.1; fill:none" points="
  46.9343,329.578 572.192,329.578
  "/>
<polyline clip-path="url(#clip02)" style="stroke:#000000; stroke-width:0.5; stroke-opacity:0.1; fill:none" points="
  46.9343,244.83 572.192,244.83
  "/>
<polyline clip-path="url(#clip02)" style="stroke:#000000; stroke-width:0.5; stroke-opacity:0.1; fill:none" points="
  46.9343,160.083 572.192,160.083
  "/>
<polyline clip-path="url(#clip02)" style="stroke:#000000; stroke-width:0.5; stroke-opacity:0.1; fill:none" points="
  46.9343,75.3347 572.192,75.3347
  "/>
<polyline clip-path="url(#clip00)" style="stroke:#000000; stroke-width:1; stroke-opacity:1; fill:none" points="
  38.8117,375.813 580.315,375.813
  "/>
<polyline clip-path="url(#clip00)" style="stroke:#000000; stroke-width:1; stroke-opacity:1; fill:none" points="
  38.8117,375.813 38.8117,11.811
  "/>
<polyline clip-path="url(#clip00)" style="stroke:#000000; stroke-width:1; stroke-opacity:1; fill:none" points="
  52.857,375.813 52.857,370.353
  "/>
<polyline clip-path="url(#clip00)" style="stroke:#000000; stroke-width:1; stroke-opacity:1; fill:none" points="
  180.89,375.813 180.89,370.353
  "/>
<polyline clip-path="url(#clip00)" style="stroke:#000000; stroke-width:1; stroke-opacity:1; fill:none" points="
  308.923,375.813 308.923,370.353
  "/>
<polyline clip-path="url(#clip00)" style="stroke:#000000; stroke-width:1; stroke-opacity:1; fill:none" points="
  436.956,375.813 436.956,370.353
  "/>
<polyline clip-path="url(#clip00)" style="stroke:#000000; stroke-width:1; stroke-opacity:1; fill:none" points="
  564.989,375.813 564.989,370.353
  "/>
<polyline clip-path="url(#clip00)" style="stroke:#000000; stroke-width:1; stroke-opacity:1; fill:none" points="
  38.8117,329.578 46.9343,329.578
  "/>
<polyline clip-path="url(#clip00)" style="stroke:#000000; stroke-width:1; stroke-opacity:1; fill:none" points="
  38.8117,244.83 46.9343,244.83
  "/>
<polyline clip-path="url(#clip00)" style="stroke:#000000; stroke-width:1; stroke-opacity:1; fill:none" points="
  38.8117,160.083 46.9343,160.083
  "/>
<polyline clip-path="url(#clip00)" style="stroke:#000000; stroke-width:1; stroke-opacity:1; fill:none" points="
  38.8117,75.3347 46.9343,75.3347
  "/>
<g clip-path="url(#clip00)">
<text style="fill:#000000; fill-opacity:1; font-family:Arial,Helvetica Neue,Helvetica,sans-serif; font-size:12; text-anchor:middle;" transform="rotate(0, 52.857, 389.613)" x="52.857" y="389.613">0</text>
</g>
<g clip-path="url(#clip00)">
<text style="fill:#000000; fill-opacity:1; font-family:Arial,Helvetica Neue,Helvetica,sans-serif; font-size:12; text-anchor:middle;" transform="rotate(0, 180.89, 389.613)" x="180.89" y="389.613">100</text>
</g>
<g clip-path="url(#clip00)">
<text style="fill:#000000; fill-opacity:1; font-family:Arial,Helvetica Neue,Helvetica,sans-serif; font-size:12; text-anchor:middle;" transform="rotate(0, 308.923, 389.613)" x="308.923" y="389.613">200</text>
</g>
<g clip-path="url(#clip00)">
<text style="fill:#000000; fill-opacity:1; font-family:Arial,Helvetica Neue,Helvetica,sans-serif; font-size:12; text-anchor:middle;" transform="rotate(0, 436.956, 389.613)" x="436.956" y="389.613">300</text>
</g>
<g clip-path="url(#clip00)">
<text style="fill:#000000; fill-opacity:1; font-family:Arial,Helvetica Neue,Helvetica,sans-serif; font-size:12; text-anchor:middle;" transform="rotate(0, 564.989, 389.613)" x="564.989" y="389.613">400</text>
</g>
<g clip-path="url(#clip00)">
<text style="fill:#000000; fill-opacity:1; font-family:Arial,Helvetica Neue,Helvetica,sans-serif; font-size:12; text-anchor:end;" transform="rotate(0, 32.8117, 334.078)" x="32.8117" y="334.078">7.15</text>
</g>
<g clip-path="url(#clip00)">
<text style="fill:#000000; fill-opacity:1; font-family:Arial,Helvetica Neue,Helvetica,sans-serif; font-size:12; text-anchor:end;" transform="rotate(0, 32.8117, 249.33)" x="32.8117" y="249.33">7.20</text>
</g>
<g clip-path="url(#clip00)">
<text style="fill:#000000; fill-opacity:1; font-family:Arial,Helvetica Neue,Helvetica,sans-serif; font-size:12; text-anchor:end;" transform="rotate(0, 32.8117, 164.583)" x="32.8117" y="164.583">7.25</text>
</g>
<g clip-path="url(#clip00)">
<text style="fill:#000000; fill-opacity:1; font-family:Arial,Helvetica Neue,Helvetica,sans-serif; font-size:12; text-anchor:end;" transform="rotate(0, 32.8117, 79.8347)" x="32.8117" y="79.8347">7.30</text>
</g>
<polyline clip-path="url(#clip02)" style="stroke:#000000; stroke-width:1; stroke-opacity:1; fill:none" points="
  54.1373,318.053 55.4176,282.289 56.698,294.493 57.9783,313.307 59.2586,303.646 60.539,268.221 61.8193,272.289 63.0996,260.763 64.3799,239.068 65.6603,233.644
  66.9406,220.762 68.2209,231.779 69.5013,258.729 70.7816,266.017 72.0619,270.933 73.3423,309.239 74.6226,287.374 75.9029,249.068 77.1833,220.423 78.4636,222.966
  79.7439,218.898 81.0243,215.508 82.3046,230.423 83.5849,240.593 84.8652,250.254 86.1456,225.677 87.4259,254.322 88.7062,234.83 89.9866,254.153 91.2669,237.881
  92.5472,243.814 93.8276,224.491 95.1079,213.982 96.3882,209.575 97.6686,246.864 98.9489,244.83 100.229,252.627 101.51,238.729 102.79,245.508 104.07,256.356
  105.351,286.865 106.631,316.019 107.911,289.238 109.192,319.917 110.472,293.137 111.752,302.968 113.033,302.29 114.313,296.018 115.593,259.746 116.874,251.102
  118.154,272.967 119.434,271.272 120.715,291.781 121.995,303.815 123.275,303.307 124.556,293.984 125.836,256.356 127.116,244.152 128.397,240.593 129.677,232.796
  130.957,249.407 132.237,252.966 133.518,275.001 134.798,275.679 136.078,255.17 137.359,229.745 138.639,203.304 139.919,193.134 141.2,180.592 142.48,184.32
  143.76,174.829 145.041,176.693 146.321,165.845 147.601,170.93 148.882,177.71 150.162,172.117 151.442,158.218 152.723,147.201 154.003,160.591 155.283,197.88
  156.564,195.168 157.844,217.711 159.124,222.796 160.405,234.322 161.685,215.508 162.965,212.287 164.246,242.797 165.526,258.39 166.806,259.238 168.087,266.865
  169.367,288.56 170.647,277.713 171.928,295.171 173.208,298.391 174.488,319.917 175.769,292.967 177.049,297.883 178.329,259.746 179.61,255.848 180.89,238.898
  182.17,253.136 183.451,265 184.731,248.39 186.011,218.728 187.292,214.66 188.572,192.117 189.852,216.525 191.133,233.644 192.413,264.492 193.693,269.068
  194.974,255.509 196.254,270.763 197.534,222.457 198.815,230.932 200.095,238.898 201.375,234.491 202.656,229.406 203.936,238.898 205.216,248.729 206.497,272.289
  207.777,271.611 209.057,249.915 210.338,249.746 211.618,285.679 212.898,281.781 214.179,321.273 215.459,325.171 216.739,317.375 218.02,318.9 219.3,337.206
  220.58,318.222 221.861,318.053 223.141,289.408 224.421,293.645 225.702,262.628 226.982,272.628 228.262,249.068 229.543,250.254 230.823,278.56 232.103,314.493
  233.384,317.205 234.664,365.511 235.944,356.359 237.225,346.697 238.505,309.239 239.785,317.036 241.066,293.306 242.346,303.815 243.626,319.239 244.907,299.747
  246.187,241.102 247.467,215.338 248.748,226.355 250.028,234.322 251.308,225.338 252.589,215.677 253.869,206.355 255.149,197.88 256.43,212.457 257.71,202.287
  258.99,192.456 260.271,174.659 261.551,176.693 262.831,145.675 264.112,157.032 265.392,139.913 266.672,143.472 267.953,144.658 269.233,164.32 270.513,149.235
  271.794,149.913 273.074,160.422 274.354,183.303 275.635,172.625 276.915,158.896 278.195,130.082 279.476,141.777 280.756,158.727 282.036,165.167 283.317,160.083
  284.597,149.404 285.877,151.608 287.158,166.015 288.438,153.811 289.718,147.201 290.999,144.658 292.279,148.048 293.559,129.912 294.84,126.692 296.12,100.59
  297.4,102.115 298.681,101.437 299.961,94.6572 301.241,93.6402 302.522,88.0469 303.802,104.318 305.082,170.591 306.363,167.371 307.643,165.676 308.923,120.421
  310.204,101.607 311.484,123.81 312.764,131.268 314.045,110.759 315.325,92.7927 316.605,104.318 317.885,103.471 319.166,115.505 320.446,120.59 321.726,168.049
  323.007,157.71 324.287,164.998 325.567,171.608 326.848,218.728 328.128,176.524 329.408,158.727 330.689,158.896 331.969,139.913 333.249,140.591 334.53,140.76
  335.81,120.082 337.09,155.676 338.371,149.574 339.651,185.507 340.931,182.117 342.212,167.371 343.492,184.829 344.772,184.151 346.053,236.356 347.333,228.728
  348.613,218.22 349.894,227.203 351.174,252.458 352.454,233.983 353.735,211.101 355.015,195.168 356.295,192.117 357.576,158.727 358.856,180.422 360.136,224.491
  361.417,210.592 362.697,167.879 363.977,175.846 365.258,189.744 366.538,220.084 367.818,179.405 369.099,100.59 370.379,93.6402 371.659,102.623 372.94,59.9105
  374.22,52.2832 375.5,22.2825 376.781,22.113 378.061,26.1809 379.341,44.1474 380.622,43.3 381.902,66.6904 383.182,54.4867 384.463,46.1814 385.743,58.8936
  387.023,67.1989 388.304,51.4358 389.584,34.4862 390.864,47.8763 392.145,52.2832 393.425,90.4198 394.705,121.438 395.986,223.305 397.266,168.049 398.546,120.251
  399.827,136.862 401.107,128.556 402.387,134.15 403.668,78.5551 404.948,97.5386 406.228,92.9622 407.509,107.539 408.789,89.2333 410.069,114.658 411.35,151.608
  412.63,158.388 413.91,130.76 415.191,140.93 416.471,155.167 417.751,190.592 419.032,160.422 420.312,144.658 421.592,107.708 422.873,91.7758 424.153,112.963
  425.433,125.336 426.714,161.439 427.994,169.066 429.274,201.779 430.555,171.1 431.835,192.456 433.115,196.694 434.396,142.963 435.676,145.167 436.956,111.776
  438.237,78.8941 439.517,89.9113 440.797,101.268 442.078,85.6739 443.358,96.8606 444.638,102.284 445.919,114.997 447.199,87.8774 448.479,86.5214 449.76,77.1991
  451.04,93.6402 452.32,68.8938 453.601,80.25 454.881,76.6906 456.161,107.878 457.442,120.421 458.722,104.149 460.002,109.742 461.283,104.827 462.563,119.234
  463.843,104.996 465.124,87.7079 466.404,114.827 467.684,102.623 468.965,76.8601 470.245,80.7585 471.525,74.6567 472.806,60.9275 474.086,57.7071 475.366,41.605
  476.647,41.0965 477.927,60.08 479.207,73.4702 480.488,57.8766 481.768,75.5042 483.048,93.8097 484.329,81.945 485.609,107.539 486.889,110.759 488.17,146.014
  489.45,132.963 490.73,124.319 492.011,123.641 493.291,107.369 494.571,95.3352 495.852,76.5211 497.132,72.4532 498.412,83.8095 499.693,98.3861 500.973,84.9959
  502.253,62.453 503.534,70.5888 504.814,75.8432 506.094,57.3681 507.374,62.2835 508.655,53.4697 509.935,54.9952 511.215,46.1814 512.496,43.6389 513.776,45.6729
  515.056,37.0286 516.337,41.7745 517.617,50.0798 518.897,33.1302 520.178,29.5708 521.458,44.9949 522.738,61.775 524.019,50.0798 525.299,59.2326 526.579,65.1649
  527.86,73.4702 529.14,70.0803 530.42,74.6567 531.701,91.9453 532.981,116.861 534.261,98.8946 535.542,108.895 536.822,111.437 538.102,111.946 539.383,123.302
  540.663,137.201 541.943,138.048 543.224,100.759 544.504,126.183 545.784,126.522 547.065,138.048 548.345,128.895 549.625,126.522 550.906,159.066 552.186,167.371
  553.466,185.676 554.747,213.304 556.027,257.034 557.307,201.44 558.588,200.931 559.868,231.61 561.148,241.441 562.429,183.473 563.709,173.642 564.989,174.998

  "/>
<polyline clip-path="url(#clip02)" style="stroke:#e26f46; stroke-width:2; stroke-opacity:1; fill:none" points="
  54.1373,278.438 152.723,218.469 239.785,311.986 260.271,167.766 526.579,70.8849 564.989,218.198
  "/>
<circle clip-path="url(#clip02)" style="fill:#000000; stroke:none; fill-opacity:1" cx="54.1373" cy="278.438" r="4"/>
<circle clip-path="url(#clip02)" style="fill:#e26f46; stroke:none; fill-opacity:1" cx="54.1373" cy="278.438" r="3"/>
<circle clip-path="url(#clip02)" style="fill:#000000; stroke:none; fill-opacity:1" cx="152.723" cy="218.469" r="4"/>
<circle clip-path="url(#clip02)" style="fill:#e26f46; stroke:none; fill-opacity:1" cx="152.723" cy="218.469" r="3"/>
<circle clip-path="url(#clip02)" style="fill:#000000; stroke:none; fill-opacity:1" cx="239.785" cy="311.986" r="4"/>
<circle clip-path="url(#clip02)" style="fill:#e26f46; stroke:none; fill-opacity:1" cx="239.785" cy="311.986" r="3"/>
<circle clip-path="url(#clip02)" style="fill:#000000; stroke:none; fill-opacity:1" cx="260.271" cy="167.766" r="4"/>
<circle clip-path="url(#clip02)" style="fill:#e26f46; stroke:none; fill-opacity:1" cx="260.271" cy="167.766" r="3"/>
<circle clip-path="url(#clip02)" style="fill:#000000; stroke:none; fill-opacity:1" cx="526.579" cy="70.8849" r="4"/>
<circle clip-path="url(#clip02)" style="fill:#e26f46; stroke:none; fill-opacity:1" cx="526.579" cy="70.8849" r="3"/>
<circle clip-path="url(#clip02)" style="fill:#000000; stroke:none; fill-opacity:1" cx="564.989" cy="218.198" r="4"/>
<circle clip-path="url(#clip02)" style="fill:#e26f46; stroke:none; fill-opacity:1" cx="564.989" cy="218.198" r="3"/>
<polyline clip-path="url(#clip02)" style="stroke:#3da44d; stroke-width:2; stroke-opacity:1; fill:none" points="
  54.1373,256.916 134.798,266.548 139.919,186.792 237.225,318.111 262.831,160.612 314.045,118.983 361.417,225.863 375.5,33.4738 412.63,146.036 521.458,48.1422
  564.989,219.372
  "/>
<circle clip-path="url(#clip02)" style="fill:#000000; stroke:none; fill-opacity:1" cx="54.1373" cy="256.916" r="4"/>
<circle clip-path="url(#clip02)" style="fill:#3da44d; stroke:none; fill-opacity:1" cx="54.1373" cy="256.916" r="3"/>
<circle clip-path="url(#clip02)" style="fill:#000000; stroke:none; fill-opacity:1" cx="134.798" cy="266.548" r="4"/>
<circle clip-path="url(#clip02)" style="fill:#3da44d; stroke:none; fill-opacity:1" cx="134.798" cy="266.548" r="3"/>
<circle clip-path="url(#clip02)" style="fill:#000000; stroke:none; fill-opacity:1" cx="139.919" cy="186.792" r="4"/>
<circle clip-path="url(#clip02)" style="fill:#3da44d; stroke:none; fill-opacity:1" cx="139.919" cy="186.792" r="3"/>
<circle clip-path="url(#clip02)" style="fill:#000000; stroke:none; fill-opacity:1" cx="237.225" cy="318.111" r="4"/>
<circle clip-path="url(#clip02)" style="fill:#3da44d; stroke:none; fill-opacity:1" cx="237.225" cy="318.111" r="3"/>
<circle clip-path="url(#clip02)" style="fill:#000000; stroke:none; fill-opacity:1" cx="262.831" cy="160.612" r="4"/>
<circle clip-path="url(#clip02)" style="fill:#3da44d; stroke:none; fill-opacity:1" cx="262.831" cy="160.612" r="3"/>
<circle clip-path="url(#clip02)" style="fill:#000000; stroke:none; fill-opacity:1" cx="314.045" cy="118.983" r="4"/>
<circle clip-path="url(#clip02)" style="fill:#3da44d; stroke:none; fill-opacity:1" cx="314.045" cy="118.983" r="3"/>
<circle clip-path="url(#clip02)" style="fill:#000000; stroke:none; fill-opacity:1" cx="361.417" cy="225.863" r="4"/>
<circle clip-path="url(#clip02)" style="fill:#3da44d; stroke:none; fill-opacity:1" cx="361.417" cy="225.863" r="3"/>
<circle clip-path="url(#clip02)" style="fill:#000000; stroke:none; fill-opacity:1" cx="375.5" cy="33.4738" r="4"/>
<circle clip-path="url(#clip02)" style="fill:#3da44d; stroke:none; fill-opacity:1" cx="375.5" cy="33.4738" r="3"/>
<circle clip-path="url(#clip02)" style="fill:#000000; stroke:none; fill-opacity:1" cx="412.63" cy="146.036" r="4"/>
<circle clip-path="url(#clip02)" style="fill:#3da44d; stroke:none; fill-opacity:1" cx="412.63" cy="146.036" r="3"/>
<circle clip-path="url(#clip02)" style="fill:#000000; stroke:none; fill-opacity:1" cx="521.458" cy="48.1422" r="4"/>
<circle clip-path="url(#clip02)" style="fill:#3da44d; stroke:none; fill-opacity:1" cx="521.458" cy="48.1422" r="3"/>
<circle clip-path="url(#clip02)" style="fill:#000000; stroke:none; fill-opacity:1" cx="564.989" cy="219.372" r="4"/>
<circle clip-path="url(#clip02)" style="fill:#3da44d; stroke:none; fill-opacity:1" cx="564.989" cy="219.372" r="3"/>
<polygon clip-path="url(#clip00)" points="
400.851,93.171 562.315,93.171 562.315,32.691 400.851,32.691
  " fill="#ffffff" fill-opacity="1"/>
<polyline clip-path="url(#clip00)" style="stroke:#000000; stroke-width:1; stroke-opacity:1; fill:none" points="
  400.851,93.171 562.315,93.171 562.315,32.691 400.851,32.691 400.851,93.171
  "/>
<polyline clip-path="url(#clip00)" style="stroke:#000000; stroke-width:1; stroke-opacity:1; fill:none" points="
  406.851,47.811 442.851,47.811
  "/>
<g clip-path="url(#clip00)">
<text style="fill:#000000; fill-opacity:1; font-family:Arial,Helvetica Neue,Helvetica,sans-serif; font-size:12; text-anchor:start;" transform="rotate(0, 448.851, 52.311)" x="448.851" y="52.311">SNP500</text>
</g>
<polyline clip-path="url(#clip00)" style="stroke:#e26f46; stroke-width:2; stroke-opacity:1; fill:none" points="
  406.851,62.931 442.851,62.931
  "/>
<circle clip-path="url(#clip00)" style="fill:#000000; stroke:none; fill-opacity:1" cx="427.851" cy="62.931" r="6"/>
<circle clip-path="url(#clip00)" style="fill:#e26f46; stroke:none; fill-opacity:1" cx="427.851" cy="62.931" r="5"/>
<g clip-path="url(#clip00)">
<text style="fill:#000000; fill-opacity:1; font-family:Arial,Helvetica Neue,Helvetica,sans-serif; font-size:12; text-anchor:start;" transform="rotate(0, 448.851, 67.431)" x="448.851" y="67.431">m=5, cost = 0.206</text>
</g>
<polyline clip-path="url(#clip00)" style="stroke:#3da44d; stroke-width:2; stroke-opacity:1; fill:none" points="
  406.851,78.051 442.851,78.051
  "/>
<circle clip-path="url(#clip00)" style="fill:#000000; stroke:none; fill-opacity:1" cx="427.851" cy="78.051" r="6"/>
<circle clip-path="url(#clip00)" style="fill:#3da44d; stroke:none; fill-opacity:1" cx="427.851" cy="78.051" r="5"/>
<g clip-path="url(#clip00)">
<text style="fill:#000000; fill-opacity:1; font-family:Arial,Helvetica Neue,Helvetica,sans-serif; font-size:12; text-anchor:start;" transform="rotate(0, 448.851, 82.551)" x="448.851" y="82.551">m=10, cost = 0.114</text>
</g>
</svg>
